<svg viewBox="0 0 41 41" fill="none" xmlns="http://www.w3.org/2000/svg">
<circle cx="20.5" cy="20.5" r="20.5" fill="#FFFFFF"/>
<g transform="translate(9.4628 9.471)">
<g id="Group">
<path id="Vector" opacity="0.987" fill-rule="evenodd" clip-rule="evenodd" d="M9.39738 0.0959108C10.5406 -0.03182 11.2171 -0.03182 12.4456 0.0959108C14.62 0.417753 16.6358 1.42287 18.2013 2.96591C17.1434 3.96589 16.0994 4.98048 15.0696 6.00937C13.0974 4.33783 10.896 3.95201 8.46542 4.85191C6.68244 5.67191 5.44088 7.00073 4.74073 8.83837C3.59657 7.98657 2.46733 7.11492 1.35349 6.22383C1.27609 6.18309 1.18768 6.16817 1.10119 6.18126C2.87049 2.76985 5.63537 0.740872 9.3958 0.0943338" fill="#F44336"/>
<path id="Vector_2" opacity="0.997" fill-rule="evenodd" clip-rule="evenodd" d="M1.09805 6.18117C1.18741 6.1675 1.27204 6.18169 1.35193 6.22374C2.46576 7.11483 3.59501 7.98648 4.73916 8.83828C4.55912 9.5543 4.44562 10.2854 4.40013 11.0223C4.43902 11.7351 4.55204 12.4347 4.73916 13.1212L1.1832 15.9518C-0.365336 12.7159 -0.393721 9.45906 1.09805 6.18117Z" fill="#FFC107"/>
<path id="Vector_3" opacity="0.999" fill-rule="evenodd" clip-rule="evenodd" d="M18.0323 19.3801C16.9251 18.4036 15.766 17.4877 14.56 16.6362C15.7689 15.7826 16.5027 14.6115 16.7613 13.1229H10.8368V9.00867C14.2535 8.98028 17.6686 9.00919 21.0821 9.0954C21.7297 12.6119 20.9817 15.7826 18.8381 18.6074C18.5833 18.8784 18.3133 19.1362 18.0323 19.3801Z" fill="#448AFF"/>
<path id="Vector_4" opacity="0.993" fill-rule="evenodd" clip-rule="evenodd" d="M4.73954 13.1229C6.03261 16.3367 8.40326 17.8369 11.8515 17.6235C12.8194 17.5114 13.7475 17.1732 14.5606 16.6363C15.7675 17.4899 16.9249 18.4046 18.033 19.3801C16.2773 20.9578 14.0388 21.8939 11.6827 22.0357C11.1474 22.0785 10.6096 22.0785 10.0743 22.0357C6.06047 21.5626 3.09691 19.5347 1.18357 15.9519L4.73954 13.1229Z" fill="#43A047"/>
</g>
</g>
</svg>
