<svg width="119" height="119" viewBox="0 0 119 119" fill="none" xmlns="http://www.w3.org/2000/svg">
<path d="M90.3726 20.273L92.126 24.3232C92.6219 25.4657 93.5343 26.3781 94.6768 26.874L98.727 28.6274C125.758 40.3338 125.758 78.6662 98.727 90.3726L94.6768 92.126C93.5343 92.6219 92.6219 93.5343 92.126 94.6768L90.3726 98.727C78.6662 125.758 40.3338 125.758 28.6274 98.727L26.874 94.6768C26.3781 93.5343 25.4657 92.6219 24.3232 92.126L20.273 90.3726C-6.75767 78.6662 -6.75767 40.3338 20.273 28.6274L24.3232 26.874C25.4657 26.3781 26.3781 25.4657 26.874 24.3232L28.6274 20.273C40.3338 -6.75767 78.6662 -6.75767 90.3726 20.273Z" fill="#EAEC98"/>
<path d="M33.6094 87.6764V32.9082H50.1969V44.5881C50.9821 42.0362 52.258 39.8442 54.0248 38.012C55.7915 36.1799 57.8199 34.773 60.1101 33.7915C62.4657 32.7446 64.8868 32.2211 67.3733 32.2211C71.5611 32.2211 75.1926 33.1699 78.268 35.0675C81.3434 36.9651 83.7318 39.6479 85.433 43.1159C87.1343 46.5839 87.985 50.7062 87.985 55.4829V87.6764H71.3975V58.133C71.3975 54.4032 70.4487 51.4587 68.5511 49.2994C66.6535 47.1401 64.1016 46.0604 60.8953 46.0604C58.736 46.0604 56.8384 46.6493 55.2026 47.8271C53.6322 48.9395 52.3889 50.4772 51.4728 52.4402C50.6222 54.4032 50.1969 56.628 50.1969 59.1145V87.6764H33.6094Z" fill="#5D7853"/>
</svg>
