<svg width="154" height="154" viewBox="0 0 154 154" fill="none" xmlns="http://www.w3.org/2000/svg">
<path d="M25.2324 52.134C28.1613 48.7307 32.0791 45.9835 36.1298 44.0851C37.7517 43.325 39.9823 42.7341 41.2251 41.5384C42.6823 40.1363 43.207 37.6459 44.1992 35.7209C45.4127 33.3666 46.7379 31.1344 48.4107 29.0631C49.2628 28.0372 50.3322 27.1481 51.229 26.1755C62.2797 14.1908 81.6718 12.1939 95.5015 20.1917C96.8484 20.9707 98.8106 22.0442 100.022 23.0388C102.046 24.9454 104.446 27.0187 106.177 29.2035C108.518 32.2742 110.005 35.7875 111.537 39.3047C112.799 42.3221 115.92 43.0908 118.655 44.3597C123.655 46.6793 127.477 49.7559 131.052 54.0462C135.214 59.0417 138.056 67.0657 138.51 73.5273C139.11 82.0703 137.168 90.5495 132.268 97.6241C130.968 99.5055 130.21 100.276 128.797 101.928C125.595 105.108 123.352 106.953 119.307 109.174C117.058 110.408 114.294 110.985 112.517 112.715C111.107 114.162 110.663 116.273 109.789 118.065C97.1134 144.05 60.4108 145.928 45.5481 121.235C44.9104 120.174 44.328 119.08 43.8029 117.958C43.2093 116.676 42.2027 113.757 41.2389 112.913C38.9142 111.015 35.814 110.195 33.1711 108.702C23.6901 103.349 16.8341 93.0934 15.4244 82.2938C15.1961 80.5449 15.0058 77.4031 15.0542 75.5835C15.2884 66.7852 19.1867 58.4596 25.2324 52.134Z" fill="#EAEC98"/>
<path d="M75.5191 47.0837C80.5994 46.6274 87.1395 48.3221 91.5349 50.7935C99.2494 55.1311 103.915 61.8175 106.403 70.1782C108.365 70.3494 109.907 70.584 111.447 71.9371C114.262 74.4111 114.776 79.0207 112.133 81.8139C110.456 83.5867 108.728 84.0534 106.392 84.1704C105.184 88.9692 102.856 93.4132 99.5977 97.1377C95.0473 102.271 88.8915 105.71 82.1348 106.895C80.9657 107.097 79.5486 107.189 78.3595 107.263C77.1516 107.403 76.1033 107.272 74.9135 107.203C70.6971 106.958 66.7504 105.802 62.983 103.866C57.0949 100.783 52.3932 95.8371 49.6117 89.8007C48.774 87.9569 48.237 86.161 47.622 84.2372C45.5128 84.0232 43.8702 83.6793 42.2436 82.1713C39.5186 79.6674 39.3253 75.0497 41.9733 72.4074C43.6955 70.689 45.2489 70.3069 47.5745 70.2498C48.5717 67.0292 49.2661 64.7099 51.0266 61.771C56.4243 52.7612 65.2668 47.7835 75.5191 47.0837Z" fill="#67835B"/>
<path d="M75.2737 49.093C80.0934 49.1587 83.8761 49.5413 88.3573 51.5099C94.9312 54.3979 100.236 59.7502 102.911 66.4185C103.655 68.275 104.177 70.0509 104.779 71.9605C104.793 72.0015 104.931 72.2759 104.935 72.2768C105.661 72.4142 106.869 72.3141 107.563 72.3944C108.072 72.4573 108.568 72.5998 109.032 72.8166C110.172 73.341 111.088 74.2227 111.512 75.4182C111.957 76.7068 111.883 78.1178 111.305 79.3526C110.522 80.9881 108.894 81.9442 107.092 81.9772C106.495 81.988 105.541 81.8801 105.04 82.0603C104.587 82.5203 104.176 84.2512 103.983 84.9239C101.937 92.0621 97.1542 98.1029 90.6754 101.731C84.0097 105.414 76.1405 106.254 68.8475 104.061C61.8591 102.006 55.9594 97.2846 52.4219 90.9168C51.7909 89.6601 51.2321 88.5591 50.6991 87.1971C50.1735 85.8541 49.621 83.2862 48.9569 82.1578C48.6671 81.6654 45.3514 82.6696 43.6402 80.8017C42.6523 79.7234 42.2923 79.0729 42.1446 77.2869C42.0653 76.086 42.5926 74.7332 43.3866 73.9309C45.0443 72.2563 46.6945 72.3672 48.8251 72.3724C49.185 72.3732 49.6651 70.7218 49.7592 70.269C51.8006 60.4471 61.8609 50.765 71.9285 49.6847C70.8883 51.0277 70.1424 52.0162 70.0013 53.7788C69.7191 57.7351 72.8174 59.9643 76.4552 60.2523C79.5557 60.4978 83.8033 58.9214 83.9882 55.3206C84.0598 54.0417 83.6189 52.787 82.7633 51.8338C82.0111 51.0062 80.9549 50.5196 79.8371 50.4858C78.715 50.4457 77.6194 50.7949 76.8089 51.5868C76.0585 52.32 75.0798 53.9082 76.0282 54.846C77.1572 55.1664 77.8042 53.394 79.0086 52.7323C79.1737 52.7214 79.3391 52.7154 79.5045 52.714C82.0692 52.7046 82.6544 55.2846 81.0114 56.9207C79.942 57.9856 78.0032 58.2412 76.5452 58.215C74.3223 58.1751 71.9033 56.5311 72.0725 54.0803C72.2239 52.066 73.8226 50.3812 75.2737 49.093Z" fill="#E9EB8C"/>
<path d="M64.8981 76.6484C68.8117 76.0434 73.0108 78.1202 73.3397 82.4423C71.6528 84.2695 71.4041 81.6962 70.764 80.7157C70.014 79.5669 68.7084 79.0212 67.3943 78.7386C65.1985 78.4182 62.3324 78.9303 61.1753 81.1457C60.8469 81.7744 60.8616 82.9078 59.9803 83.0746C59.5136 83.163 58.8917 82.6386 58.8594 82.1579C58.9247 78.8661 61.9098 77.0021 64.8981 76.6484Z" fill="#67835B"/>
<path d="M86.6594 76.6465C89.3074 76.3739 91.9976 76.9287 93.8098 79.0544C94.4816 79.7693 95.6747 82.1494 94.6205 82.9545C93.8439 83.5476 93.3131 82.7345 93.1153 82.1133C92.4806 80.1202 91.3591 79.2186 89.2656 78.7421C87.2589 78.3607 84.2021 78.8977 83.1084 80.8555C82.7584 81.4819 82.4726 82.9023 81.7021 83.0985C79.7665 83.0291 80.9619 80.0692 81.6366 79.2268C82.8624 77.6967 84.7403 76.884 86.6594 76.6465Z" fill="#67835B"/>
</svg>
