<svg width="383" height="383" viewBox="0 0 383 383" fill="none" xmlns="http://www.w3.org/2000/svg">
<g clip-path="url(#clip0_1025_7369)">
<path d="M277.164 228.938L270.598 234.043C268.747 235.485 267.511 237.58 267.144 239.897L265.85 248.113C257.206 302.943 187.26 320.976 153.183 277.161L148.078 270.595C146.636 268.744 144.542 267.508 142.224 267.141L134.008 265.847C79.1781 257.202 61.1448 187.257 104.961 153.18L111.526 148.075C113.378 146.633 114.613 144.539 114.981 142.221L116.274 134.005C124.919 79.175 194.864 61.1416 228.941 104.957L234.046 111.523C235.489 113.374 237.583 114.61 239.901 114.977L248.116 116.271C302.946 124.916 320.98 194.861 277.164 228.938Z" fill="#EAEC8C"/>
</g>
<g opacity="0.776336">
<g clip-path="url(#clip1_1025_7369)">
<path opacity="0.45" d="M241.495 149.982L242.57 155.631C242.875 157.225 243.775 158.645 245.086 159.601L249.736 162.985C280.768 185.573 269.844 234.311 232.14 241.492L226.49 242.567C224.896 242.872 223.476 243.772 222.52 245.083L219.136 249.733C196.549 280.765 147.811 269.841 140.63 232.136L139.555 226.487C139.25 224.893 138.35 223.473 137.038 222.517L132.388 219.133C101.356 196.545 112.28 147.807 149.985 140.626L155.634 139.551C157.228 139.246 158.648 138.346 159.605 137.035L162.988 132.385C185.576 101.353 234.314 112.277 241.495 149.982Z" fill="#EAEC8C"/>
</g>
</g>
<g clip-path="url(#clip2_1025_7369)">
<path d="M205.1 146.046L208.012 149.031C208.834 149.872 209.946 150.37 211.122 150.423L215.286 150.607C243.084 151.838 255.99 185.669 236.074 205.101L233.09 208.012C232.249 208.834 231.751 209.946 231.698 211.122L231.514 215.287C230.283 243.085 196.452 255.99 177.02 236.075L174.109 233.091C173.286 232.249 172.174 231.751 170.999 231.698L166.834 231.514C139.036 230.283 126.131 196.452 146.046 177.02L149.03 174.109C149.872 173.287 150.37 172.174 150.423 170.999L150.606 166.834C151.838 139.037 185.669 126.131 205.1 146.046Z" fill="#5C7852"/>
</g>
<g opacity="0.976336">
<g filter="url(#filter0_f_1025_7369)">
<path d="M177.164 191.059C177.164 183.385 183.385 177.164 191.059 177.164C198.733 177.164 204.954 183.385 204.954 191.059C204.954 198.733 198.733 204.954 191.059 204.954C183.385 204.954 177.164 198.733 177.164 191.059Z" fill="#EAEC8C"/>
</g>
</g>
<defs>
<filter id="filter0_f_1025_7369" x="170.216" y="170.216" width="41.6843" height="41.6855" filterUnits="userSpaceOnUse" color-interpolation-filters="sRGB">
<feFlood flood-opacity="0" result="BackgroundImageFix"/>
<feBlend mode="normal" in="SourceGraphic" in2="BackgroundImageFix" result="shape"/>
<feGaussianBlur stdDeviation="3.4738" result="effect1_foregroundBlur_1025_7369"/>
</filter>
<clipPath id="clip0_1025_7369">
<rect width="224.241" height="224.241" fill="white" transform="translate(271.641 54.4974) rotate(75.5428)"/>
</clipPath>
<clipPath id="clip1_1025_7369">
<rect width="155.058" height="155.058" fill="white" transform="translate(132.367 98.4503) rotate(12.6336)"/>
</clipPath>
<clipPath id="clip2_1025_7369">
<rect width="112.407" height="112.407" fill="white" transform="translate(118.516 158.58) rotate(-20.8804)"/>
</clipPath>
</defs>
</svg>
