<svg width="154" height="154" viewBox="0 0 154 154" fill="none" xmlns="http://www.w3.org/2000/svg">
<path d="M25.2324 52.134C28.1613 48.7307 32.0791 45.9835 36.1298 44.0851C37.7517 43.325 39.9823 42.7341 41.2251 41.5384C42.6823 40.1363 43.207 37.6459 44.1992 35.7209C45.4127 33.3666 46.7379 31.1344 48.4107 29.0631C49.2628 28.0372 50.3322 27.1481 51.229 26.1755C62.2797 14.1908 81.6718 12.1939 95.5015 20.1917C96.8484 20.9707 98.8106 22.0442 100.022 23.0388C102.046 24.9454 104.446 27.0187 106.177 29.2035C108.518 32.2742 110.005 35.7875 111.537 39.3047C112.799 42.3221 115.92 43.0908 118.655 44.3597C123.655 46.6793 127.477 49.7559 131.052 54.0462C135.214 59.0417 138.056 67.0657 138.51 73.5273C139.11 82.0703 137.168 90.5495 132.268 97.6241C130.968 99.5055 130.21 100.276 128.797 101.928C125.595 105.108 123.352 106.953 119.307 109.174C117.058 110.408 114.294 110.985 112.517 112.715C111.107 114.162 110.663 116.273 109.789 118.065C97.1134 144.05 60.4108 145.928 45.5481 121.235C44.9104 120.174 44.328 119.08 43.8029 117.958C43.2093 116.676 42.2027 113.757 41.2389 112.913C38.9142 111.015 35.814 110.195 33.1711 108.702C23.6901 103.349 16.8341 93.0934 15.4244 82.2938C15.1961 80.5449 15.0058 77.4031 15.0542 75.5835C15.2884 66.7852 19.1867 58.4596 25.2324 52.134Z" fill="#FFFCD9"/>
<path d="M75.4292 47.0743C80.5096 46.618 87.0496 48.3127 91.4451 50.7841C99.1595 55.1217 103.825 61.8081 106.314 70.1688C108.276 70.34 109.818 70.5746 111.357 71.9277C114.172 74.4017 114.686 79.0113 112.043 81.8045C110.367 83.5773 108.639 84.044 106.302 84.161C105.094 88.9598 102.766 93.4038 99.5079 97.1283C94.9574 102.262 88.8017 105.701 82.045 106.886C80.8759 107.087 79.4588 107.179 78.2697 107.254C77.0618 107.393 76.0135 107.262 74.8237 107.193C70.6073 106.949 66.6605 105.793 62.8931 103.856C57.0051 100.773 52.3033 95.8277 49.5219 89.7913C48.6841 87.9475 48.1472 86.1516 47.5321 84.2278C45.423 84.0138 43.7803 83.6699 42.1537 82.1619C39.4288 79.658 39.2355 75.0403 41.8835 72.398C43.6057 70.6796 45.1591 70.2975 47.4846 70.2404C48.4819 67.0198 49.1762 64.7005 50.9368 61.7616C56.3344 52.7518 65.177 47.7741 75.4292 47.0743Z" fill="#5D7853"/>
<path d="M75.1838 49.084C80.0036 49.1497 83.7863 49.5322 88.2675 51.5008C94.8414 54.3889 100.146 59.7411 102.821 66.4095C103.565 68.266 104.088 70.0418 104.69 71.9515C104.703 71.9925 104.841 72.2669 104.846 72.2678C105.571 72.4051 106.78 72.305 107.473 72.3854C107.983 72.4483 108.478 72.5907 108.942 72.8075C110.082 73.332 110.998 74.2136 111.422 75.4092C111.867 76.6977 111.793 78.1088 111.215 79.3435C110.432 80.9791 108.804 81.9352 107.002 81.9681C106.405 81.979 105.451 81.871 104.951 82.0512C104.497 82.5113 104.086 84.2421 103.893 84.9149C101.847 92.0531 97.0644 98.0939 90.5856 101.722C83.9199 105.405 76.0507 106.245 68.7576 104.052C61.7692 101.997 55.8695 97.2756 52.332 90.9078C51.7011 89.651 51.1422 88.5501 50.6092 87.1881C50.0836 85.845 49.5312 83.2772 48.8671 82.1488C48.5772 81.6564 45.2616 82.6605 43.5503 80.7927C42.5624 79.7143 42.2025 79.0638 42.0547 77.2778C41.9755 76.077 42.5027 74.7241 43.2967 73.9219C44.9544 72.2473 46.6047 72.3582 48.7353 72.3633C49.0951 72.3642 49.5753 70.7128 49.6694 70.26C51.7108 60.4381 61.7711 50.7559 71.8387 49.6757C70.7985 51.0187 70.0526 52.0072 69.9115 53.7697C69.6293 57.7261 72.7276 59.9552 76.3653 60.2432C79.4658 60.4887 83.7135 58.9123 83.8984 55.3116C83.9699 54.0327 83.5291 52.778 82.6734 51.8247C81.9213 50.9972 80.8651 50.5106 79.7473 50.4768C78.6252 50.4366 77.5296 50.7859 76.7191 51.5778C75.9687 52.3109 74.9899 53.8992 75.9384 54.8369C77.0674 55.1574 77.7143 53.385 78.9188 52.7233C79.0838 52.7124 79.2492 52.7063 79.4147 52.705C81.9794 52.6955 82.5646 55.2755 80.9215 56.9117C79.8521 57.9765 77.9133 58.2322 76.4554 58.206C74.2325 58.1661 71.8134 56.5221 71.9827 54.0712C72.1341 52.057 73.7327 50.3722 75.1838 49.084Z" fill="#FFFCD9"/>
<path d="M64.8082 76.6382C68.7218 76.0331 72.9209 78.11 73.2498 82.432C71.563 84.2593 71.3143 81.686 70.6742 80.7055C69.9242 79.5566 68.6186 79.0109 67.3045 78.7283C65.1087 78.408 62.2426 78.9201 61.0854 81.1354C60.7571 81.7641 60.7717 82.8975 59.8905 83.0644C59.4238 83.1528 58.8019 82.6283 58.7695 82.1476C58.8348 78.8558 61.82 76.9918 64.8082 76.6382Z" fill="#5D7853"/>
<path d="M86.5696 76.6366C89.2176 76.364 91.9078 76.9189 93.72 79.0445C94.3918 79.7594 95.5848 82.1396 94.5307 82.9447C93.7541 83.5377 93.2233 82.7246 93.0254 82.1034C92.3908 80.1103 91.2692 79.2088 89.1758 78.7322C87.169 78.3508 84.1123 78.8878 83.0185 80.8456C82.6686 81.472 82.3827 82.8925 81.6123 83.0886C79.6766 83.0192 80.872 80.0593 81.5468 79.2169C82.7725 77.6868 84.6505 76.8742 86.5696 76.6366Z" fill="#5D7853"/>
</svg>
