<svg width="44" height="43" viewBox="0 0 44 43" fill="none" xmlns="http://www.w3.org/2000/svg">
<path d="M14.3399 0.0293315C16.1429 -0.103582 18.0408 0.22438 19.7348 0.827388C20.4131 1.06884 21.2165 1.52824 21.9108 1.54142C22.725 1.55687 23.5835 1.00613 24.4142 0.744791C25.4301 0.425159 26.4431 0.171048 27.5092 0.0594149C28.044 0.0107241 28.6016 0.0612386 29.134 0.0400002C35.6932 -0.221684 41.7837 4.6519 43.4443 10.7673C43.606 11.3629 43.859 12.2134 43.9208 12.8315C43.9543 13.9327 44.0472 15.1859 43.9181 16.2832C43.7102 17.7991 43.1333 19.2002 42.5681 20.6149C42.0682 21.8138 42.738 22.9036 43.1554 24.0253C43.9185 26.0759 44.1307 28.0086 43.9271 30.2123C43.6899 32.7781 42.2144 35.8224 40.5036 37.7598C38.242 40.3215 35.2745 42.153 31.8648 42.7622C30.9589 42.9251 30.5238 42.9286 29.6509 42.9956C27.8335 42.9895 26.6698 42.8779 24.8853 42.367C23.8935 42.0825 22.9423 41.4695 21.9438 41.4566C21.13 41.4669 20.4027 41.934 19.6435 42.191C8.63492 45.9201 -2.3507 36.1633 0.448283 25.0812C0.56902 24.6051 0.714674 24.1354 0.884622 23.674C1.08073 23.1484 1.62529 22.0486 1.591 21.5423C1.46957 20.3591 0.820405 19.2607 0.492792 18.1021C-0.682503 13.946 0.285449 9.15192 2.95918 5.73126C3.39218 5.1773 4.23259 4.24377 4.76452 3.74753C7.33648 1.34812 10.8172 0.107763 14.3399 0.0293315Z" fill="#FDF2EC"/>
<path d="M21.5224 9.70151C23.5478 9.51959 26.155 10.1952 27.9072 11.1804C30.9826 12.9096 32.8424 15.5752 33.8346 18.9082C34.6168 18.9765 35.2315 19.07 35.8451 19.6094C36.9674 20.5957 37.1725 22.4333 36.1188 23.5468C35.4504 24.2536 34.7615 24.4396 33.83 24.4863C33.3485 26.3993 32.4203 28.1709 31.1215 29.6557C29.3075 31.7021 26.8534 33.0733 24.1598 33.5455C23.6938 33.6259 23.1289 33.6626 22.6548 33.6922C22.1733 33.748 21.7554 33.6957 21.281 33.6681C19.6002 33.5706 18.0268 33.1099 16.5249 32.3379C14.1776 31.1088 12.3032 29.1372 11.1944 26.7308C10.8604 25.9958 10.6463 25.2798 10.4011 24.5129C9.56034 24.4276 8.90548 24.2905 8.25704 23.6893C7.17072 22.6911 7.09365 20.8503 8.1493 19.7969C8.83587 19.1119 9.45513 18.9595 10.3822 18.9368C10.7798 17.6529 11.0566 16.7283 11.7584 15.5567C13.9102 11.9648 17.4353 9.98046 21.5224 9.70151Z" fill="#EBA27C"/>
<path d="M21.425 10.502C23.3464 10.5281 24.8544 10.6807 26.6409 11.4654C29.2616 12.6168 31.3764 14.7505 32.4427 17.4088C32.7395 18.1489 32.9477 18.8569 33.1876 19.6182C33.193 19.6345 33.2479 19.7439 33.2498 19.7443C33.539 19.799 34.0208 19.7591 34.2973 19.7912C34.5004 19.8162 34.6978 19.873 34.8828 19.9594C35.3375 20.1685 35.7026 20.52 35.8716 20.9966C36.049 21.5103 36.0194 22.0728 35.789 22.565C35.4768 23.2171 34.8279 23.5982 34.1095 23.6114C33.8715 23.6157 33.4914 23.5727 33.2917 23.6445C33.1108 23.8279 32.9469 24.5179 32.87 24.7861C32.0545 27.6318 30.1478 30.04 27.565 31.4863C24.9077 32.9546 21.7706 33.2895 18.8632 32.4153C16.0773 31.5959 13.7253 29.7137 12.3151 27.1752C12.0635 26.6742 11.8407 26.2353 11.6283 25.6923C11.4187 25.1569 11.1985 24.1332 10.9337 23.6834C10.8182 23.4871 9.4964 23.8874 8.8142 23.1428C8.42037 22.7129 8.27688 22.4535 8.21798 21.7416C8.18638 21.2628 8.39656 20.7235 8.71311 20.4037C9.37395 19.7361 10.0318 19.7803 10.8812 19.7824C11.0247 19.7827 11.2161 19.1244 11.2536 18.9439C12.0674 15.0283 16.078 11.1685 20.0915 10.7378C19.6768 11.2732 19.3794 11.6673 19.3232 12.37C19.2107 13.9472 20.4458 14.8358 21.896 14.9506C23.1321 15.0485 24.8254 14.4201 24.8991 12.9846C24.9277 12.4748 24.7519 11.9746 24.4108 11.5946C24.111 11.2647 23.6899 11.0707 23.2443 11.0572C22.7969 11.0412 22.3602 11.1804 22.0371 11.4961C21.7379 11.7884 21.3477 12.4216 21.7258 12.7954C22.1759 12.9231 22.4338 12.2166 22.914 11.9528C22.9798 11.9484 23.0457 11.946 23.1117 11.9455C24.1341 11.9417 24.3674 12.9702 23.7124 13.6225C23.2861 14.047 22.5132 14.1489 21.9319 14.1385C21.0458 14.1226 20.0814 13.4672 20.1489 12.4901C20.2092 11.6871 20.8465 11.0155 21.425 10.502Z" fill="#FDF2EC"/>
<path d="M17.2863 21.4883C18.8464 21.2471 20.5204 22.0751 20.6515 23.7981C19.9791 24.5265 19.8799 23.5007 19.6247 23.1098C19.3257 22.6518 18.8053 22.4342 18.2814 22.3216C17.406 22.1939 16.2635 22.398 15.8022 23.2812C15.6713 23.5318 15.6771 23.9837 15.3258 24.0502C15.1397 24.0854 14.8918 23.8763 14.8789 23.6847C14.9049 22.3724 16.095 21.6293 17.2863 21.4883Z" fill="#EBA27C"/>
<path d="M25.9627 21.4866C27.0183 21.3779 28.0908 21.5991 28.8132 22.4465C29.0811 22.7315 29.5567 23.6804 29.1364 24.0013C28.8268 24.2377 28.6152 23.9136 28.5364 23.666C28.2834 22.8714 27.8362 22.512 27.0017 22.322C26.2017 22.17 24.9831 22.3841 24.5471 23.1645C24.4076 23.4142 24.2936 23.9805 23.9865 24.0587C23.2148 24.031 23.6914 22.8511 23.9604 22.5153C24.449 21.9052 25.1977 21.5813 25.9627 21.4866Z" fill="#EBA27C"/>
</svg>
