<svg width="145" height="145" viewBox="0 0 145 145" fill="none" xmlns="http://www.w3.org/2000/svg">
<path d="M202.009 -75.6839L205.929 -66.6304C207.037 -64.0766 209.077 -62.0372 211.63 -60.9288L220.684 -57.0094C281.105 -30.8422 281.105 54.8421 220.684 81.0094L211.63 84.9287C209.077 86.0372 207.037 88.0766 205.929 90.6304L202.009 99.6839C175.842 160.105 90.1578 160.105 63.9906 99.6839L60.0712 90.6304C58.9628 88.0766 56.9234 86.0372 54.3696 84.9287L45.3161 81.0094C-15.1054 54.8421 -15.1054 -30.8422 45.3161 -57.0094L54.3696 -60.9288C56.9234 -62.0372 58.9628 -64.0766 60.0712 -66.6304L63.9906 -75.6839C90.1578 -136.105 175.842 -136.105 202.009 -75.6839Z" fill="#EAEC98"/>
</svg>
