<svg width="178" height="218" viewBox="0 0 178 218" fill="none" xmlns="http://www.w3.org/2000/svg">
<g clip-path="url(#clip0_971_8731)">
<path d="M216.009 -15.6839L219.929 -6.63041C221.037 -4.07664 223.077 -2.03718 225.63 -0.928772L234.684 2.99055C295.105 29.1578 295.105 114.842 234.684 141.009L225.63 144.929C223.077 146.037 221.037 148.077 219.929 150.63L216.009 159.684C189.842 220.105 104.158 220.105 77.9906 159.684L74.0712 150.63C72.9628 148.077 70.9234 146.037 68.3696 144.929L59.3161 141.009C-1.10537 114.842 -1.10537 29.1578 59.3161 2.99055L68.3696 -0.928772C70.9234 -2.03718 72.9628 -4.07664 74.0712 -6.63041L77.9906 -15.6839C104.158 -76.1054 189.842 -76.1054 216.009 -15.6839Z" fill="#EAEC98"/>
</g>
<defs>
<clipPath id="clip0_971_8731">
<rect width="178" height="218" fill="white"/>
</clipPath>
</defs>
</svg>
