<svg width="90" height="102" viewBox="0 0 90 102" fill="none" xmlns="http://www.w3.org/2000/svg">
<path d="M118.472 -27.4236L120.77 -22.1141C121.42 -20.6164 122.616 -19.4203 124.114 -18.7703L129.424 -16.4717C164.859 -1.12548 164.859 49.1255 129.424 64.4717L124.114 66.7702C122.616 67.4203 121.42 68.6164 120.77 70.1141L118.472 75.4236C103.125 110.859 52.8745 110.859 37.5283 75.4236L35.2298 70.1141C34.5797 68.6164 33.3836 67.4203 31.8859 66.7702L26.5764 64.4717C-8.85879 49.1255 -8.85879 -1.12548 26.5764 -16.4717L31.8859 -18.7703C33.3836 -19.4203 34.5797 -20.6164 35.2298 -22.1141L37.5283 -27.4236C52.8745 -62.8588 103.125 -62.8588 118.472 -27.4236Z" fill="#FDF2EC"/>
</svg>
