<svg width="62" height="62" viewBox="0 0 62 62" fill="none" xmlns="http://www.w3.org/2000/svg">
<g clip-path="url(#clip0_1525_19828)">
<path d="M56.8253 27.923L55.9791 30.0611C55.7409 30.6647 55.7409 31.3369 55.9791 31.9405L56.8253 34.0786C62.4709 48.3497 48.3489 62.4717 34.0778 56.8261L31.9397 55.9799C31.3361 55.7417 30.6639 55.7417 30.0603 55.9799L27.9222 56.8261C13.6511 62.4717 -0.4709 48.3497 5.17469 34.0786L6.02087 31.9405C6.25909 31.3369 6.25909 30.6646 6.02087 30.0611L5.17469 27.923C-0.470895 13.6519 13.6511 -0.470116 27.9222 5.17547L30.0603 6.02165C30.6639 6.25987 31.3361 6.25987 31.9397 6.02165L34.0778 5.17547C48.3489 -0.470113 62.4709 13.6519 56.8253 27.923Z" fill="#EBA27C"/>
<path d="M30.809 17.0353C33.2193 16.8188 36.3221 17.6228 38.4075 18.7953C42.0675 20.8533 44.2808 24.0255 45.4617 27.9921C46.3925 28.0734 47.1241 28.1847 47.8543 28.8266C49.19 30.0004 49.434 32.1874 48.1801 33.5126C47.3846 34.3536 46.5648 34.5751 45.4562 34.6306C44.8832 36.9073 43.7785 39.0157 42.2328 40.7828C40.0739 43.2182 37.1534 44.85 33.9477 45.412C33.3931 45.5076 32.7207 45.5513 32.1566 45.5866C31.5835 45.653 31.0862 45.5907 30.5217 45.5579C28.5213 45.4419 26.6488 44.8936 24.8614 43.9748C22.0678 42.5121 19.8372 40.1657 18.5176 37.3018C18.1201 36.4271 17.8653 35.575 17.5735 34.6623C16.5729 34.5607 15.7935 34.3976 15.0218 33.6821C13.729 32.4942 13.6373 30.3034 14.8936 29.0498C15.7107 28.2345 16.4477 28.0532 17.551 28.0261C18.0241 26.4982 18.3536 25.3978 19.1888 24.0035C21.7497 19.7289 25.9449 17.3673 30.809 17.0353Z" fill="#EBA27C"/>
<path d="M30.6941 17.9883C32.9808 18.0194 34.7754 18.201 36.9015 19.1349C40.0204 20.5051 42.5372 23.0444 43.8062 26.2081C44.1594 27.0889 44.4071 27.9315 44.6927 28.8375C44.6991 28.857 44.7645 28.9871 44.7668 28.9876C45.1109 29.0527 45.6843 29.0052 46.0133 29.0433C46.2551 29.0732 46.49 29.1408 46.7102 29.2436C47.2513 29.4924 47.6858 29.9107 47.8869 30.478C48.098 31.0893 48.0628 31.7587 47.7886 32.3446C47.4171 33.1205 46.6449 33.5741 45.7899 33.5898C45.5066 33.5949 45.0542 33.5437 44.8166 33.6292C44.6013 33.8474 44.4062 34.6687 44.3147 34.9878C43.3443 38.3744 41.075 41.2404 38.0013 42.9618C34.8388 44.7092 31.1053 45.1077 27.6453 44.0673C24.3297 43.0921 21.5306 40.8522 19.8523 37.8311C19.553 37.2348 19.2878 36.7125 19.035 36.0663C18.7856 35.4291 18.5235 34.2108 18.2084 33.6755C18.0709 33.4419 16.4978 33.9183 15.686 33.0321C15.2173 32.5205 15.0465 32.2119 14.9764 31.3645C14.9388 30.7948 15.1889 30.1529 15.5656 29.7723C16.3521 28.9778 17.1351 29.0305 18.1459 29.0329C18.3166 29.0333 18.5444 28.2498 18.5891 28.035C19.5576 23.3751 24.3306 18.7815 29.107 18.269C28.6135 18.9062 28.2596 19.3752 28.1927 20.2114C28.0588 22.0884 29.5287 23.146 31.2546 23.2827C32.7256 23.3991 34.7409 22.6512 34.8286 20.9429C34.8626 20.3361 34.6534 19.7409 34.2474 19.2886C33.8906 18.896 33.3895 18.6651 32.8592 18.6491C32.3268 18.63 31.807 18.7957 31.4225 19.1714C31.0665 19.5193 30.6021 20.2728 31.0521 20.7177C31.5877 20.8697 31.8947 20.0288 32.4661 19.7149C32.5444 19.7097 32.6229 19.7069 32.7014 19.7062C33.9182 19.7017 34.1958 20.9258 33.4163 21.702C32.9089 22.2072 31.9891 22.3285 31.2974 22.3161C30.2427 22.2972 29.095 21.5172 29.1753 20.3544C29.2472 19.3988 30.0056 18.5995 30.6941 17.9883Z" fill="#FDF2EC"/>
<path d="M25.7712 31.0625C27.628 30.7755 29.6202 31.7608 29.7763 33.8114C28.9759 34.6783 28.858 33.4574 28.5543 32.9922C28.1984 32.4472 27.579 32.1883 26.9555 32.0542C25.9138 31.9022 24.554 32.1452 24.005 33.1962C23.8492 33.4945 23.8562 34.0322 23.4381 34.1114C23.2167 34.1533 22.9216 33.9045 22.9062 33.6764C22.9372 32.1147 24.3535 31.2303 25.7712 31.0625Z" fill="#EBA27C"/>
<path d="M36.094 31.0618C37.3503 30.9324 38.6267 31.1957 39.4864 32.2042C39.8052 32.5433 40.3712 33.6726 39.8711 34.0546C39.5026 34.3359 39.2508 33.9501 39.1569 33.6554C38.8558 32.7098 38.3237 32.2821 37.3305 32.056C36.3784 31.875 34.9282 32.1298 34.4093 33.0587C34.2433 33.3559 34.1076 34.0298 33.7421 34.1229C32.8238 34.0899 33.3909 32.6856 33.711 32.286C34.2926 31.56 35.1835 31.1745 36.094 31.0618Z" fill="#EBA27C"/>
</g>
<defs>
<clipPath id="clip0_1525_19828">
<rect width="62" height="62" fill="white" transform="translate(62 2.71011e-06) rotate(90)"/>
</clipPath>
</defs>
</svg>
