<svg width="370" height="175" viewBox="0 6 370 175" fill="none" xmlns="http://www.w3.org/2000/svg">
<g filter="url(#filter0_d_1015_6821)">
<g clip-path="url(#clip0_1015_6821)">
<rect y="6" width="370" height="175" rx="12" fill="#5D7853"/>
<path d="M26.005 35.53V46H23.89L19.15 38.845V46H17.035V35.53H19.15L23.89 42.7V35.53H26.005ZM32.0249 46.105C31.3849 46.105 30.7899 46.005 30.2399 45.805C29.6999 45.605 29.2249 45.32 28.8149 44.95C28.4149 44.58 28.0999 44.14 27.8699 43.63C27.6499 43.11 27.5399 42.535 27.5399 41.905C27.5399 41.255 27.6549 40.665 27.8849 40.135C28.1149 39.605 28.4349 39.15 28.8449 38.77C29.2549 38.39 29.7249 38.1 30.2549 37.9C30.7849 37.69 31.3449 37.585 31.9349 37.585C32.4349 37.585 32.9049 37.655 33.3449 37.795C33.7849 37.925 34.1699 38.115 34.4999 38.365C34.8399 38.605 35.0999 38.895 35.2799 39.235C35.4699 39.575 35.5649 39.945 35.5649 40.345C35.5649 40.865 35.4149 41.3 35.1149 41.65C34.8149 42 34.4149 42.28 33.9149 42.49C33.4249 42.69 32.8849 42.83 32.2949 42.91C31.7049 42.98 31.1249 43.005 30.5549 42.985C30.4649 42.975 30.3599 42.97 30.2399 42.97C30.1199 42.97 30.0099 42.97 29.9099 42.97C29.8199 42.96 29.7599 42.955 29.7299 42.955C29.7899 43.225 29.9299 43.475 30.1499 43.705C30.3799 43.935 30.6599 44.115 30.9899 44.245C31.3199 44.365 31.6749 44.425 32.0549 44.425C32.3849 44.425 32.7049 44.37 33.0149 44.26C33.3249 44.15 33.6099 44 33.8699 43.81C34.1399 43.61 34.3599 43.395 34.5299 43.165L35.9849 44.26C35.6649 44.68 35.2949 45.03 34.8749 45.31C34.4549 45.58 34.0049 45.78 33.5249 45.91C33.0449 46.04 32.5449 46.105 32.0249 46.105ZM30.6299 41.47C30.9599 41.47 31.2899 41.455 31.6199 41.425C31.9599 41.395 32.2699 41.34 32.5499 41.26C32.8399 41.17 33.0699 41.05 33.2399 40.9C33.4199 40.74 33.5099 40.54 33.5099 40.3C33.5099 40.1 33.4399 39.925 33.2999 39.775C33.1699 39.615 32.9899 39.49 32.7599 39.4C32.5399 39.3 32.2849 39.25 31.9949 39.25C31.5349 39.25 31.1249 39.355 30.7649 39.565C30.4149 39.775 30.1399 40.05 29.9399 40.39C29.7399 40.72 29.6299 41.065 29.6099 41.425C29.7299 41.435 29.8799 41.445 30.0599 41.455C30.2399 41.465 30.4299 41.47 30.6299 41.47ZM36.437 37.69H38.582L40.337 45.325H39.707L41.627 37.69H43.862L45.752 45.325H45.122L46.862 37.69H48.902L46.487 46H44.177L42.362 38.965H43.022L41.162 46H38.867L36.437 37.69ZM56.7625 46.105C55.9825 46.105 55.3625 45.875 54.9025 45.415C54.4525 44.945 54.2275 44.28 54.2275 43.42V39.415H52.9375V37.69H58.2025V39.415H56.3725V43.495C56.3725 43.755 56.4475 43.95 56.5975 44.08C56.7475 44.21 56.9175 44.275 57.1075 44.275C57.2275 44.275 57.3375 44.255 57.4375 44.215C57.5475 44.175 57.6525 44.115 57.7525 44.035L58.5025 45.49C58.2425 45.7 57.9725 45.855 57.6925 45.955C57.4125 46.055 57.1025 46.105 56.7625 46.105ZM53.5675 38.35V37.69C53.7875 37.69 53.9575 37.625 54.0775 37.495C54.2075 37.365 54.2725 37.19 54.2725 36.97V35.635H56.3725V36.625C56.3725 36.775 56.3325 36.925 56.2525 37.075C56.1825 37.225 56.0825 37.355 55.9525 37.465C55.8225 37.575 55.6675 37.65 55.4875 37.69L53.5675 38.35ZM63.5424 46.105C62.7424 46.105 62.0224 45.93 61.3824 45.58C60.7524 45.23 60.2474 44.735 59.8674 44.095C59.4974 43.455 59.3124 42.7 59.3124 41.83C59.3124 40.96 59.5024 40.21 59.8824 39.58C60.2624 38.94 60.7774 38.45 61.4274 38.11C62.0774 37.76 62.8024 37.585 63.6024 37.585C64.4024 37.585 65.1224 37.76 65.7624 38.11C66.4124 38.45 66.9274 38.94 67.3074 39.58C67.6874 40.21 67.8774 40.96 67.8774 41.83C67.8774 42.7 67.6824 43.455 67.2924 44.095C66.9124 44.735 66.3924 45.23 65.7324 45.58C65.0824 45.93 64.3524 46.105 63.5424 46.105ZM63.5424 44.26C63.9124 44.26 64.2624 44.175 64.5924 44.005C64.9224 43.825 65.1924 43.555 65.4024 43.195C65.6124 42.825 65.7174 42.37 65.7174 41.83C65.7174 41.29 65.6124 40.84 65.4024 40.48C65.2024 40.12 64.9374 39.855 64.6074 39.685C64.2874 39.505 63.9424 39.415 63.5724 39.415C63.2024 39.415 62.8574 39.505 62.5374 39.685C62.2274 39.855 61.9724 40.12 61.7724 40.48C61.5724 40.84 61.4724 41.29 61.4724 41.83C61.4724 42.37 61.5674 42.825 61.7574 43.195C61.9474 43.555 62.1974 43.825 62.5074 44.005C62.8274 44.175 63.1724 44.26 63.5424 44.26ZM76.6977 46.105C75.9777 46.105 75.3327 45.975 74.7627 45.715C74.1927 45.455 73.7277 45.095 73.3677 44.635C73.0077 44.175 72.7777 43.635 72.6777 43.015L74.8227 42.58C74.9327 43.13 75.1477 43.56 75.4677 43.87C75.7877 44.18 76.1777 44.335 76.6377 44.335C77.1577 44.335 77.5577 44.225 77.8377 44.005C78.1177 43.775 78.2577 43.47 78.2577 43.09C78.2577 42.78 78.1577 42.53 77.9577 42.34C77.7677 42.15 77.5077 41.99 77.1777 41.86C76.8577 41.73 76.5077 41.615 76.1277 41.515C75.7477 41.405 75.3627 41.285 74.9727 41.155C74.5927 41.015 74.2427 40.835 73.9227 40.615C73.6027 40.395 73.3427 40.115 73.1427 39.775C72.9527 39.435 72.8577 39 72.8577 38.47C72.8577 37.83 73.0127 37.285 73.3227 36.835C73.6327 36.375 74.0627 36.025 74.6127 35.785C75.1727 35.545 75.8177 35.425 76.5477 35.425C77.1877 35.425 77.7677 35.54 78.2877 35.77C78.8177 36 79.2527 36.32 79.5927 36.73C79.9327 37.13 80.1377 37.59 80.2077 38.11L78.0927 38.65C78.0027 38.18 77.8127 37.815 77.5227 37.555C77.2427 37.295 76.8927 37.165 76.4727 37.165C76.2027 37.165 75.9527 37.21 75.7227 37.3C75.5027 37.39 75.3277 37.525 75.1977 37.705C75.0677 37.885 75.0027 38.11 75.0027 38.38C75.0027 38.68 75.1027 38.925 75.3027 39.115C75.5027 39.295 75.7627 39.45 76.0827 39.58C76.4027 39.7 76.7527 39.815 77.1327 39.925C77.5227 40.025 77.9077 40.145 78.2877 40.285C78.6777 40.425 79.0327 40.605 79.3527 40.825C79.6827 41.045 79.9427 41.33 80.1327 41.68C80.3327 42.02 80.4327 42.45 80.4327 42.97C80.4327 43.52 80.2777 44.035 79.9677 44.515C79.6677 44.995 79.2377 45.38 78.6777 45.67C78.1177 45.96 77.4577 46.105 76.6977 46.105ZM85.1219 46.105C84.3419 46.105 83.7219 45.875 83.2619 45.415C82.8119 44.945 82.5869 44.28 82.5869 43.42V39.415H81.2969V37.69H86.5619V39.415H84.7319V43.495C84.7319 43.755 84.8069 43.95 84.9569 44.08C85.1069 44.21 85.2769 44.275 85.4669 44.275C85.5869 44.275 85.6969 44.255 85.7969 44.215C85.9069 44.175 86.0119 44.115 86.1119 44.035L86.8619 45.49C86.6019 45.7 86.3319 45.855 86.0519 45.955C85.7719 46.055 85.4619 46.105 85.1219 46.105ZM81.9269 38.35V37.69C82.1469 37.69 82.3169 37.625 82.4369 37.495C82.5669 37.365 82.6319 37.19 82.6319 36.97V35.635H84.7319V36.625C84.7319 36.775 84.6919 36.925 84.6119 37.075C84.5419 37.225 84.4419 37.355 84.3119 37.465C84.1819 37.575 84.0269 37.65 83.8469 37.69L81.9269 38.35ZM91.5532 46.105C90.8232 46.105 90.1782 45.925 89.6182 45.565C89.0582 45.195 88.6182 44.69 88.2982 44.05C87.9782 43.4 87.8182 42.665 87.8182 41.845C87.8182 41.015 87.9782 40.28 88.2982 39.64C88.6182 39 89.0582 38.5 89.6182 38.14C90.1782 37.77 90.8232 37.585 91.5532 37.585C92.2132 37.585 92.7882 37.755 93.2782 38.095C93.7682 38.435 94.1232 38.905 94.3432 39.505V37.69H96.4732V46H95.4532C95.1132 46 94.8432 45.9 94.6432 45.7C94.4432 45.49 94.3432 45.215 94.3432 44.875V44.17C94.1232 44.78 93.7682 45.255 93.2782 45.595C92.7882 45.935 92.2132 46.105 91.5532 46.105ZM92.1532 44.26C92.5432 44.26 92.9032 44.165 93.2332 43.975C93.5632 43.785 93.8282 43.51 94.0282 43.15C94.2382 42.79 94.3432 42.355 94.3432 41.845C94.3432 41.325 94.2382 40.885 94.0282 40.525C93.8282 40.165 93.5632 39.895 93.2332 39.715C92.9032 39.525 92.5432 39.43 92.1532 39.43C91.7832 39.43 91.4282 39.525 91.0882 39.715C90.7582 39.895 90.4882 40.165 90.2782 40.525C90.0782 40.885 89.9782 41.325 89.9782 41.845C89.9782 42.355 90.0782 42.79 90.2782 43.15C90.4882 43.51 90.7582 43.785 91.0882 43.975C91.4282 44.165 91.7832 44.26 92.1532 44.26ZM98.5243 46V37.69H100.639V46H98.5243ZM100.189 42.115L100.639 39.595C100.829 38.975 101.149 38.485 101.599 38.125C102.059 37.765 102.604 37.585 103.234 37.585V39.805C103.144 39.775 103.054 39.76 102.964 39.76C102.884 39.75 102.799 39.745 102.709 39.745C102.319 39.745 101.964 39.835 101.644 40.015C101.334 40.195 101.089 40.46 100.909 40.81C100.729 41.16 100.639 41.595 100.639 42.115H100.189ZM108.105 46.105C107.325 46.105 106.705 45.875 106.245 45.415C105.795 44.945 105.57 44.28 105.57 43.42V39.415H104.28V37.69H109.545V39.415H107.715V43.495C107.715 43.755 107.79 43.95 107.94 44.08C108.09 44.21 108.26 44.275 108.45 44.275C108.57 44.275 108.68 44.255 108.78 44.215C108.89 44.175 108.995 44.115 109.095 44.035L109.845 45.49C109.585 45.7 109.315 45.855 109.035 45.955C108.755 46.055 108.445 46.105 108.105 46.105ZM104.91 38.35V37.69C105.13 37.69 105.3 37.625 105.42 37.495C105.55 37.365 105.615 37.19 105.615 36.97V35.635H107.715V36.625C107.715 36.775 107.675 36.925 107.595 37.075C107.525 37.225 107.425 37.355 107.295 37.465C107.165 37.575 107.01 37.65 106.83 37.69L104.91 38.35ZM111.327 46V37.69H113.457V46H111.327ZM112.407 36.685C111.987 36.685 111.637 36.56 111.357 36.31C111.077 36.05 110.937 35.73 110.937 35.35C110.937 34.97 111.077 34.65 111.357 34.39C111.637 34.13 111.987 34 112.407 34C112.827 34 113.177 34.13 113.457 34.39C113.737 34.65 113.877 34.97 113.877 35.35C113.877 35.73 113.737 36.05 113.457 36.31C113.177 36.56 112.827 36.685 112.407 36.685ZM115.546 46V37.69H117.661V39.445C117.791 39.075 117.991 38.75 118.261 38.47C118.531 38.19 118.846 37.975 119.206 37.825C119.566 37.665 119.936 37.585 120.316 37.585C120.946 37.585 121.496 37.725 121.966 38.005C122.446 38.285 122.816 38.69 123.076 39.22C123.336 39.74 123.466 40.37 123.466 41.11V46H121.366V41.5C121.366 40.84 121.196 40.325 120.856 39.955C120.516 39.575 120.071 39.385 119.521 39.385C119.151 39.385 118.826 39.485 118.546 39.685C118.266 39.875 118.046 40.14 117.886 40.48C117.736 40.82 117.661 41.21 117.661 41.65V46H115.546ZM129.333 50.065C128.663 50.065 128.038 49.96 127.458 49.75C126.878 49.55 126.378 49.245 125.958 48.835C125.538 48.425 125.233 47.925 125.043 47.335L126.933 46.63C127.133 47.13 127.443 47.525 127.863 47.815C128.283 48.115 128.758 48.265 129.288 48.265C129.738 48.265 130.123 48.175 130.443 47.995C130.763 47.815 131.008 47.55 131.178 47.2C131.358 46.86 131.448 46.45 131.448 45.97V44.17C131.238 44.78 130.888 45.255 130.398 45.595C129.908 45.935 129.333 46.105 128.673 46.105C127.943 46.105 127.293 45.925 126.723 45.565C126.163 45.195 125.723 44.69 125.403 44.05C125.083 43.4 124.923 42.665 124.923 41.845C124.923 41.015 125.083 40.28 125.403 39.64C125.723 39 126.163 38.5 126.723 38.14C127.293 37.77 127.943 37.585 128.673 37.585C129.333 37.585 129.908 37.755 130.398 38.095C130.888 38.435 131.238 38.905 131.448 39.505V37.69H133.578V45.94C133.578 46.52 133.488 47.055 133.308 47.545C133.128 48.045 132.863 48.48 132.513 48.85C132.163 49.23 131.723 49.525 131.193 49.735C130.663 49.955 130.043 50.065 129.333 50.065ZM129.273 44.26C129.653 44.26 130.008 44.17 130.338 43.99C130.668 43.8 130.933 43.525 131.133 43.165C131.343 42.795 131.448 42.355 131.448 41.845C131.448 41.325 131.343 40.885 131.133 40.525C130.933 40.165 130.668 39.895 130.338 39.715C130.008 39.525 129.653 39.43 129.273 39.43C128.893 39.43 128.533 39.525 128.193 39.715C127.863 39.895 127.593 40.165 127.383 40.525C127.183 40.885 127.083 41.325 127.083 41.845C127.083 42.355 127.183 42.795 127.383 43.165C127.593 43.525 127.863 43.8 128.193 43.99C128.533 44.17 128.893 44.26 129.273 44.26ZM142.923 46.105C142.203 46.105 141.558 45.975 140.988 45.715C140.418 45.455 139.953 45.095 139.593 44.635C139.233 44.175 139.003 43.635 138.903 43.015L141.048 42.58C141.158 43.13 141.373 43.56 141.693 43.87C142.013 44.18 142.403 44.335 142.863 44.335C143.383 44.335 143.783 44.225 144.063 44.005C144.343 43.775 144.483 43.47 144.483 43.09C144.483 42.78 144.383 42.53 144.183 42.34C143.993 42.15 143.733 41.99 143.403 41.86C143.083 41.73 142.733 41.615 142.353 41.515C141.973 41.405 141.588 41.285 141.198 41.155C140.818 41.015 140.468 40.835 140.148 40.615C139.828 40.395 139.568 40.115 139.368 39.775C139.178 39.435 139.083 39 139.083 38.47C139.083 37.83 139.238 37.285 139.548 36.835C139.858 36.375 140.288 36.025 140.838 35.785C141.398 35.545 142.043 35.425 142.773 35.425C143.413 35.425 143.993 35.54 144.513 35.77C145.043 36 145.478 36.32 145.818 36.73C146.158 37.13 146.363 37.59 146.433 38.11L144.318 38.65C144.228 38.18 144.038 37.815 143.748 37.555C143.468 37.295 143.118 37.165 142.698 37.165C142.428 37.165 142.178 37.21 141.948 37.3C141.728 37.39 141.553 37.525 141.423 37.705C141.293 37.885 141.228 38.11 141.228 38.38C141.228 38.68 141.328 38.925 141.528 39.115C141.728 39.295 141.988 39.45 142.308 39.58C142.628 39.7 142.978 39.815 143.358 39.925C143.748 40.025 144.133 40.145 144.513 40.285C144.903 40.425 145.258 40.605 145.578 40.825C145.908 41.045 146.168 41.33 146.358 41.68C146.558 42.02 146.658 42.45 146.658 42.97C146.658 43.52 146.503 44.035 146.193 44.515C145.893 44.995 145.463 45.38 144.903 45.67C144.343 45.96 143.683 46.105 142.923 46.105ZM152.165 46.105C151.365 46.105 150.645 45.93 150.005 45.58C149.375 45.23 148.87 44.735 148.49 44.095C148.12 43.455 147.935 42.7 147.935 41.83C147.935 40.96 148.125 40.21 148.505 39.58C148.885 38.94 149.4 38.45 150.05 38.11C150.7 37.76 151.425 37.585 152.225 37.585C153.025 37.585 153.745 37.76 154.385 38.11C155.035 38.45 155.55 38.94 155.93 39.58C156.31 40.21 156.5 40.96 156.5 41.83C156.5 42.7 156.305 43.455 155.915 44.095C155.535 44.735 155.015 45.23 154.355 45.58C153.705 45.93 152.975 46.105 152.165 46.105ZM152.165 44.26C152.535 44.26 152.885 44.175 153.215 44.005C153.545 43.825 153.815 43.555 154.025 43.195C154.235 42.825 154.34 42.37 154.34 41.83C154.34 41.29 154.235 40.84 154.025 40.48C153.825 40.12 153.56 39.855 153.23 39.685C152.91 39.505 152.565 39.415 152.195 39.415C151.825 39.415 151.48 39.505 151.16 39.685C150.85 39.855 150.595 40.12 150.395 40.48C150.195 40.84 150.095 41.29 150.095 41.83C150.095 42.37 150.19 42.825 150.38 43.195C150.57 43.555 150.82 43.825 151.13 44.005C151.45 44.175 151.795 44.26 152.165 44.26ZM158.026 43.765V34.9H160.141V43.63C160.141 43.85 160.206 44.015 160.336 44.125C160.466 44.235 160.621 44.29 160.801 44.29C160.931 44.29 161.041 44.27 161.131 44.23L161.521 45.835C161.171 46.015 160.771 46.105 160.321 46.105C159.951 46.105 159.586 46.03 159.226 45.88C158.876 45.72 158.586 45.47 158.356 45.13C158.136 44.78 158.026 44.325 158.026 43.765ZM162.801 46V37.69H164.931V46H162.801ZM163.881 36.685C163.461 36.685 163.111 36.56 162.831 36.31C162.551 36.05 162.411 35.73 162.411 35.35C162.411 34.97 162.551 34.65 162.831 34.39C163.111 34.13 163.461 34 163.881 34C164.301 34 164.651 34.13 164.931 34.39C165.211 34.65 165.351 34.97 165.351 35.35C165.351 35.73 165.211 36.05 164.931 36.31C164.651 36.56 164.301 36.685 163.881 36.685ZM170.215 46.105C169.485 46.105 168.84 45.925 168.28 45.565C167.72 45.195 167.28 44.69 166.96 44.05C166.64 43.4 166.48 42.665 166.48 41.845C166.48 41.015 166.64 40.28 166.96 39.64C167.28 39 167.72 38.5 168.28 38.14C168.84 37.77 169.485 37.585 170.215 37.585C170.875 37.585 171.45 37.755 171.94 38.095C172.43 38.435 172.785 38.905 173.005 39.505V34.9H175.135V46H174.115C173.775 46 173.505 45.9 173.305 45.7C173.105 45.49 173.005 45.215 173.005 44.875V44.17C172.785 44.78 172.43 45.255 171.94 45.595C171.45 45.935 170.875 46.105 170.215 46.105ZM170.815 44.26C171.205 44.26 171.565 44.165 171.895 43.975C172.225 43.785 172.49 43.51 172.69 43.15C172.9 42.79 173.005 42.355 173.005 41.845C173.005 41.325 172.9 40.885 172.69 40.525C172.49 40.165 172.225 39.895 171.895 39.715C171.565 39.525 171.205 39.43 170.815 39.43C170.445 39.43 170.09 39.525 169.75 39.715C169.42 39.895 169.15 40.165 168.94 40.525C168.74 40.885 168.64 41.325 168.64 41.845C168.64 42.355 168.74 42.79 168.94 43.15C169.15 43.51 169.42 43.785 169.75 43.975C170.09 44.165 170.445 44.26 170.815 44.26ZM180.231 46.105C179.631 46.105 179.091 46.01 178.611 45.82C178.131 45.62 177.731 45.345 177.411 44.995C177.091 44.645 176.866 44.255 176.736 43.825L178.716 43.375C178.806 43.705 178.986 43.97 179.256 44.17C179.526 44.36 179.841 44.455 180.201 44.455C180.621 44.455 180.936 44.375 181.146 44.215C181.366 44.055 181.476 43.855 181.476 43.615C181.476 43.365 181.361 43.175 181.131 43.045C180.911 42.905 180.621 42.795 180.261 42.715C179.911 42.625 179.536 42.53 179.136 42.43C178.736 42.32 178.356 42.18 177.996 42.01C177.636 41.83 177.341 41.59 177.111 41.29C176.891 40.98 176.781 40.57 176.781 40.06C176.781 39.61 176.911 39.195 177.171 38.815C177.441 38.435 177.821 38.135 178.311 37.915C178.801 37.695 179.386 37.585 180.066 37.585C180.656 37.585 181.176 37.675 181.626 37.855C182.076 38.035 182.446 38.295 182.736 38.635C183.026 38.965 183.226 39.355 183.336 39.805L181.416 40.315C181.326 39.965 181.166 39.7 180.936 39.52C180.716 39.33 180.406 39.235 180.006 39.235C179.626 39.235 179.336 39.31 179.136 39.46C178.936 39.6 178.836 39.79 178.836 40.03C178.836 40.28 178.946 40.475 179.166 40.615C179.396 40.745 179.686 40.86 180.036 40.96C180.396 41.05 180.776 41.15 181.176 41.26C181.576 41.36 181.951 41.5 182.301 41.68C182.661 41.86 182.951 42.105 183.171 42.415C183.401 42.725 183.516 43.135 183.516 43.645C183.516 44.095 183.381 44.51 183.111 44.89C182.841 45.26 182.461 45.555 181.971 45.775C181.481 45.995 180.901 46.105 180.231 46.105ZM186.145 42.505L186.055 39.955H187.105C187.565 39.955 187.965 39.895 188.305 39.775C188.655 39.655 188.925 39.47 189.115 39.22C189.315 38.97 189.415 38.655 189.415 38.275C189.415 37.905 189.29 37.59 189.04 37.33C188.8 37.06 188.455 36.925 188.005 36.925C187.615 36.925 187.285 37.055 187.015 37.315C186.755 37.565 186.58 37.915 186.49 38.365L184.645 37.78C184.735 37.29 184.93 36.85 185.23 36.46C185.53 36.06 185.915 35.745 186.385 35.515C186.865 35.275 187.41 35.155 188.02 35.155C188.71 35.155 189.31 35.285 189.82 35.545C190.34 35.795 190.74 36.155 191.02 36.625C191.31 37.095 191.455 37.655 191.455 38.305C191.455 38.925 191.31 39.465 191.02 39.925C190.73 40.375 190.325 40.725 189.805 40.975C189.295 41.225 188.71 41.35 188.05 41.35L187.975 42.505H186.145ZM187.15 46.105C186.75 46.105 186.415 45.98 186.145 45.73C185.885 45.48 185.755 45.175 185.755 44.815C185.755 44.445 185.885 44.14 186.145 43.9C186.415 43.65 186.75 43.525 187.15 43.525C187.56 43.525 187.895 43.65 188.155 43.9C188.415 44.14 188.545 44.445 188.545 44.815C188.545 45.175 188.415 45.48 188.155 45.73C187.895 45.98 187.56 46.105 187.15 46.105Z" fill="white"/>
<path d="M19.17 76.12C18.7833 76.12 18.44 76.08 18.14 76C17.84 75.9133 17.58 75.7967 17.36 75.65C17.14 75.4967 16.96 75.33 16.82 75.15C16.68 74.9633 16.5767 74.7667 16.51 74.56L17.32 74.28C17.42 74.5733 17.62 74.83 17.92 75.05C18.2267 75.2633 18.6 75.37 19.04 75.37C19.58 75.37 20.0033 75.2633 20.31 75.05C20.6167 74.8367 20.77 74.5533 20.77 74.2C20.77 73.8733 20.6333 73.61 20.36 73.41C20.0867 73.2033 19.7267 73.0433 19.28 72.93L18.51 72.73C18.1967 72.65 17.9067 72.5333 17.64 72.38C17.38 72.22 17.17 72.02 17.01 71.78C16.8567 71.5333 16.78 71.24 16.78 70.9C16.78 70.2667 16.9833 69.7733 17.39 69.42C17.8033 69.06 18.3967 68.88 19.17 68.88C19.63 68.88 20.0267 68.9567 20.36 69.11C20.6933 69.2567 20.9633 69.4467 21.17 69.68C21.3833 69.9067 21.5333 70.1533 21.62 70.42L20.82 70.7C20.6933 70.3667 20.48 70.1067 20.18 69.92C19.88 69.7267 19.5167 69.63 19.09 69.63C18.6433 69.63 18.2867 69.74 18.02 69.96C17.76 70.1733 17.63 70.4667 17.63 70.84C17.63 71.16 17.7333 71.4067 17.94 71.58C18.1467 71.7467 18.4167 71.87 18.75 71.95L19.52 72.14C20.2 72.3 20.72 72.5667 21.08 72.94C21.4467 73.3067 21.63 73.7033 21.63 74.13C21.63 74.4967 21.5367 74.8333 21.35 75.14C21.1633 75.44 20.8867 75.68 20.52 75.86C20.16 76.0333 19.71 76.12 19.17 76.12ZM24.7226 76.12C24.2359 76.12 23.8592 75.9933 23.5926 75.74C23.3259 75.4867 23.1926 75.13 23.1926 74.67V71.71H22.3226V71H23.1926V69.44H23.9926V71H25.4926V71.71H23.9926V74.59C23.9926 74.8433 24.0592 75.04 24.1926 75.18C24.3326 75.3133 24.5259 75.38 24.7726 75.38C24.8526 75.38 24.9292 75.37 25.0026 75.35C25.0826 75.3233 25.1859 75.2633 25.3126 75.17L25.6226 75.82C25.4492 75.9333 25.2926 76.01 25.1526 76.05C25.0126 76.0967 24.8692 76.12 24.7226 76.12ZM28.1726 76.12C27.5859 76.12 27.1259 75.9867 26.7926 75.72C26.4659 75.4467 26.3026 75.07 26.3026 74.59C26.3026 74.0833 26.4692 73.6967 26.8026 73.43C27.1426 73.1567 27.6159 73.02 28.2226 73.02H29.6126C29.5792 72.5467 29.4626 72.1933 29.2626 71.96C29.0626 71.72 28.7626 71.6 28.3626 71.6C28.0892 71.6 27.8526 71.6567 27.6526 71.77C27.4592 71.8767 27.2992 72.05 27.1726 72.29L26.4526 72.01C26.5792 71.7767 26.7326 71.5767 26.9126 71.41C27.0926 71.2367 27.3026 71.1067 27.5426 71.02C27.7826 70.9267 28.0559 70.88 28.3626 70.88C28.8292 70.88 29.2126 70.9733 29.5126 71.16C29.8192 71.34 30.0492 71.61 30.2026 71.97C30.3559 72.3233 30.4292 72.7633 30.4226 73.29L30.4126 76H29.6726L29.6326 75.33C29.4859 75.5833 29.2892 75.78 29.0426 75.92C28.7959 76.0533 28.5059 76.12 28.1726 76.12ZM28.2126 75.42C28.4992 75.42 28.7492 75.36 28.9626 75.24C29.1759 75.1133 29.3392 74.9367 29.4526 74.71C29.5726 74.4833 29.6326 74.21 29.6326 73.89V73.69H28.4026C27.9359 73.69 27.6026 73.7667 27.4026 73.92C27.2092 74.0733 27.1126 74.2933 27.1126 74.58C27.1126 74.84 27.2092 75.0467 27.4026 75.2C27.5959 75.3467 27.8659 75.42 28.2126 75.42ZM31.6902 76V71H32.4902V71.89C32.6902 71.5767 32.9469 71.3467 33.2602 71.2C33.5802 71.0533 33.9136 70.98 34.2602 70.98V71.73C33.9669 71.73 33.6836 71.78 33.4102 71.88C33.1436 71.9733 32.9236 72.13 32.7502 72.35C32.5769 72.57 32.4902 72.87 32.4902 73.25V76H31.6902ZM36.9491 76.12C36.4625 76.12 36.0858 75.9933 35.8191 75.74C35.5525 75.4867 35.4191 75.13 35.4191 74.67V71.71H34.5491V71H35.4191V69.44H36.2191V71H37.7191V71.71H36.2191V74.59C36.2191 74.8433 36.2858 75.04 36.4191 75.18C36.5591 75.3133 36.7525 75.38 36.9991 75.38C37.0791 75.38 37.1558 75.37 37.2291 75.35C37.3091 75.3233 37.4125 75.2633 37.5391 75.17L37.8491 75.82C37.6758 75.9333 37.5191 76.01 37.3791 76.05C37.2391 76.0967 37.0958 76.12 36.9491 76.12ZM41.7691 78.12C41.6425 78.12 41.4958 78.0933 41.3291 78.04C41.1625 77.9933 40.9858 77.93 40.7991 77.85L41.0991 77.18C41.2525 77.2467 41.3858 77.2967 41.4991 77.33C41.6191 77.3633 41.7125 77.38 41.7791 77.38C41.9591 77.38 42.1058 77.33 42.2191 77.23C42.3391 77.1367 42.4391 77 42.5191 76.82L42.8591 75.98L40.7091 71H41.5591L43.2591 75.05L44.9391 71H45.7991L43.3991 76.7C43.2725 76.9933 43.1391 77.2467 42.9991 77.46C42.8658 77.6733 42.7025 77.8367 42.5091 77.95C42.3158 78.0633 42.0691 78.12 41.7691 78.12ZM48.6756 76.12C48.189 76.12 47.7556 76.01 47.3756 75.79C47.0023 75.5633 46.709 75.2533 46.4956 74.86C46.2823 74.4667 46.1756 74.0133 46.1756 73.5C46.1756 72.9867 46.279 72.5333 46.4856 72.14C46.699 71.7467 46.9923 71.44 47.3656 71.22C47.7456 70.9933 48.1756 70.88 48.6556 70.88C49.149 70.88 49.5823 70.9933 49.9556 71.22C50.3356 71.44 50.629 71.7467 50.8356 72.14C51.049 72.5333 51.1556 72.9867 51.1556 73.5C51.1556 74.0133 51.049 74.4667 50.8356 74.86C50.629 75.2533 50.339 75.5633 49.9656 75.79C49.5923 76.01 49.1623 76.12 48.6756 76.12ZM48.6756 75.38C49.009 75.38 49.299 75.3 49.5456 75.14C49.7923 74.98 49.9856 74.76 50.1256 74.48C50.2723 74.2 50.3456 73.8733 50.3456 73.5C50.3456 73.1267 50.2723 72.8 50.1256 72.52C49.9856 72.24 49.789 72.02 49.5356 71.86C49.2823 71.7 48.989 71.62 48.6556 71.62C48.329 71.62 48.039 71.7 47.7856 71.86C47.539 72.02 47.3423 72.24 47.1956 72.52C47.0556 72.8 46.9856 73.1267 46.9856 73.5C46.9856 73.8667 47.0556 74.1933 47.1956 74.48C47.3423 74.76 47.5423 74.98 47.7956 75.14C48.0556 75.3 48.349 75.38 48.6756 75.38ZM54.0764 76.12C53.6897 76.12 53.3497 76.0433 53.0564 75.89C52.7697 75.73 52.5431 75.48 52.3764 75.14C52.2164 74.7933 52.1364 74.3467 52.1364 73.8V71H52.9364V73.56C52.9364 74.0533 52.9931 74.43 53.1064 74.69C53.2197 74.95 53.3764 75.13 53.5764 75.23C53.7831 75.3233 54.0131 75.37 54.2664 75.37C54.6997 75.37 55.0364 75.2133 55.2764 74.9C55.5231 74.5867 55.6464 74.15 55.6464 73.59V71H56.4464V76H55.6964L55.6564 75.25C55.4897 75.53 55.2731 75.7467 55.0064 75.9C54.7397 76.0467 54.4297 76.12 54.0764 76.12ZM57.8426 76V71H58.6426V71.89C58.8426 71.5767 59.0992 71.3467 59.4126 71.2C59.7326 71.0533 60.0659 70.98 60.4126 70.98V71.73C60.1192 71.73 59.8359 71.78 59.5626 71.88C59.2959 71.9733 59.0759 72.13 58.9026 72.35C58.7292 72.57 58.6426 72.87 58.6426 73.25V76H57.8426ZM66.1822 76.12C65.8155 76.12 65.4889 76.0333 65.2022 75.86C64.9155 75.6867 64.6789 75.45 64.4922 75.15L64.4522 76H63.6922V69H64.4922V71.84C64.6789 71.54 64.9155 71.3067 65.2022 71.14C65.4889 70.9667 65.8155 70.88 66.1822 70.88C66.6289 70.88 67.0222 70.99 67.3622 71.21C67.7022 71.43 67.9655 71.7367 68.1522 72.13C68.3455 72.5233 68.4422 72.98 68.4422 73.5C68.4422 74.0133 68.3455 74.47 68.1522 74.87C67.9655 75.2633 67.7022 75.57 67.3622 75.79C67.0222 76.01 66.6289 76.12 66.1822 76.12ZM66.0022 75.39C66.3155 75.39 66.5922 75.31 66.8322 75.15C67.0789 74.99 67.2722 74.7667 67.4122 74.48C67.5589 74.1933 67.6322 73.8667 67.6322 73.5C67.6322 73.1333 67.5622 72.8067 67.4222 72.52C67.2889 72.2333 67.0989 72.01 66.8522 71.85C66.6055 71.69 66.3255 71.61 66.0122 71.61C65.7189 71.61 65.4555 71.69 65.2222 71.85C64.9955 72.01 64.8155 72.2333 64.6822 72.52C64.5555 72.8067 64.4922 73.1333 64.4922 73.5C64.4922 73.8667 64.5555 74.1933 64.6822 74.48C64.8155 74.7667 64.9955 74.99 65.2222 75.15C65.4489 75.31 65.7089 75.39 66.0022 75.39ZM71.1316 76.12C70.5449 76.12 70.0849 75.9867 69.7516 75.72C69.4249 75.4467 69.2616 75.07 69.2616 74.59C69.2616 74.0833 69.4282 73.6967 69.7616 73.43C70.1016 73.1567 70.5749 73.02 71.1816 73.02H72.5716C72.5382 72.5467 72.4216 72.1933 72.2216 71.96C72.0216 71.72 71.7216 71.6 71.3216 71.6C71.0482 71.6 70.8116 71.6567 70.6116 71.77C70.4182 71.8767 70.2582 72.05 70.1316 72.29L69.4116 72.01C69.5382 71.7767 69.6916 71.5767 69.8716 71.41C70.0516 71.2367 70.2616 71.1067 70.5016 71.02C70.7416 70.9267 71.0149 70.88 71.3216 70.88C71.7882 70.88 72.1716 70.9733 72.4716 71.16C72.7782 71.34 73.0082 71.61 73.1616 71.97C73.3149 72.3233 73.3882 72.7633 73.3816 73.29L73.3716 76H72.6316L72.5916 75.33C72.4449 75.5833 72.2482 75.78 72.0016 75.92C71.7549 76.0533 71.4649 76.12 71.1316 76.12ZM71.1716 75.42C71.4582 75.42 71.7082 75.36 71.9216 75.24C72.1349 75.1133 72.2982 74.9367 72.4116 74.71C72.5316 74.4833 72.5916 74.21 72.5916 73.89V73.69H71.3616C70.8949 73.69 70.5616 73.7667 70.3616 73.92C70.1682 74.0733 70.0716 74.2933 70.0716 74.58C70.0716 74.84 70.1682 75.0467 70.3616 75.2C70.5549 75.3467 70.8249 75.42 71.1716 75.42ZM77.1392 76.12C76.7726 76.12 76.4459 76.0333 76.1592 75.86C75.8726 75.6867 75.6359 75.45 75.4492 75.15L75.4092 76H74.6492V69H75.4492V71.84C75.6359 71.54 75.8726 71.3067 76.1592 71.14C76.4459 70.9667 76.7726 70.88 77.1392 70.88C77.5859 70.88 77.9792 70.99 78.3192 71.21C78.6592 71.43 78.9226 71.7367 79.1092 72.13C79.3026 72.5233 79.3992 72.98 79.3992 73.5C79.3992 74.0133 79.3026 74.47 79.1092 74.87C78.9226 75.2633 78.6592 75.57 78.3192 75.79C77.9792 76.01 77.5859 76.12 77.1392 76.12ZM76.9592 75.39C77.2726 75.39 77.5492 75.31 77.7892 75.15C78.0359 74.99 78.2292 74.7667 78.3692 74.48C78.5159 74.1933 78.5892 73.8667 78.5892 73.5C78.5892 73.1333 78.5192 72.8067 78.3792 72.52C78.2459 72.2333 78.0559 72.01 77.8092 71.85C77.5626 71.69 77.2826 71.61 76.9692 71.61C76.6759 71.61 76.4126 71.69 76.1792 71.85C75.9526 72.01 75.7726 72.2333 75.6392 72.52C75.5126 72.8067 75.4492 73.1333 75.4492 73.5C75.4492 73.8667 75.5126 74.1933 75.6392 74.48C75.7726 74.7667 75.9526 74.99 76.1792 75.15C76.4059 75.31 76.6659 75.39 76.9592 75.39ZM80.8316 78.12C80.705 78.12 80.5583 78.0933 80.3916 78.04C80.225 77.9933 80.0483 77.93 79.8616 77.85L80.1616 77.18C80.315 77.2467 80.4483 77.2967 80.5616 77.33C80.6816 77.3633 80.775 77.38 80.8416 77.38C81.0216 77.38 81.1683 77.33 81.2816 77.23C81.4016 77.1367 81.5016 77 81.5816 76.82L81.9216 75.98L79.7716 71H80.6216L82.3216 75.05L84.0016 71H84.8616L82.4616 76.7C82.335 76.9933 82.2016 77.2467 82.0616 77.46C81.9283 77.6733 81.765 77.8367 81.5716 77.95C81.3783 78.0633 81.1316 78.12 80.8316 78.12ZM85.3988 71.11L85.9688 69H86.8688L86.0888 71.11H85.3988ZM88.8113 76.12C88.4447 76.12 88.1247 76.0667 87.8513 75.96C87.578 75.8467 87.348 75.7 87.1613 75.52C86.9813 75.34 86.8513 75.1433 86.7713 74.93L87.4713 74.64C87.5847 74.8667 87.7547 75.05 87.9813 75.19C88.208 75.33 88.458 75.4 88.7313 75.4C89.0447 75.4 89.308 75.34 89.5213 75.22C89.7347 75.0933 89.8413 74.9167 89.8413 74.69C89.8413 74.4833 89.7613 74.3167 89.6013 74.19C89.448 74.0633 89.218 73.96 88.9113 73.88L88.4313 73.75C87.978 73.63 87.6247 73.45 87.3713 73.21C87.118 72.9633 86.9913 72.6867 86.9913 72.38C86.9913 71.9067 87.1447 71.54 87.4513 71.28C87.7647 71.0133 88.228 70.88 88.8413 70.88C89.1347 70.88 89.4013 70.9233 89.6413 71.01C89.8813 71.0967 90.088 71.22 90.2613 71.38C90.4347 71.5333 90.5613 71.7167 90.6413 71.93L89.9413 72.24C89.8547 72.0133 89.7113 71.85 89.5113 71.75C89.3113 71.65 89.068 71.6 88.7813 71.6C88.4747 71.6 88.2347 71.6667 88.0613 71.8C87.888 71.9267 87.8013 72.1067 87.8013 72.34C87.8013 72.4733 87.8713 72.6 88.0113 72.72C88.158 72.8333 88.3713 72.9267 88.6513 73L89.1513 73.13C89.478 73.21 89.7513 73.33 89.9713 73.49C90.1913 73.6433 90.358 73.82 90.4713 74.02C90.5847 74.22 90.6413 74.4333 90.6413 74.66C90.6413 74.96 90.5613 75.22 90.4013 75.44C90.2413 75.66 90.0247 75.83 89.7513 75.95C89.478 76.0633 89.1647 76.12 88.8113 76.12ZM94.6902 76V71.69H93.7702V71H94.6902V70.43C94.6902 69.91 94.8102 69.52 95.0502 69.26C95.2969 68.9933 95.6702 68.86 96.1702 68.86C96.3036 68.86 96.4536 68.8833 96.6202 68.93C96.7869 68.9767 96.9636 69.0433 97.1502 69.13L96.8502 69.76C96.6969 69.7 96.5669 69.6533 96.4602 69.62C96.3536 69.5867 96.2636 69.57 96.1902 69.57C95.9569 69.57 95.7802 69.6467 95.6602 69.8C95.5469 69.9467 95.4902 70.1767 95.4902 70.49V71H96.9402V71.69H95.4902V76H94.6902ZM100.062 76.12C99.5757 76.12 99.1423 76.01 98.7623 75.79C98.389 75.5633 98.0957 75.2533 97.8823 74.86C97.669 74.4667 97.5623 74.0133 97.5623 73.5C97.5623 72.9867 97.6657 72.5333 97.8723 72.14C98.0857 71.7467 98.379 71.44 98.7523 71.22C99.1323 70.9933 99.5623 70.88 100.042 70.88C100.536 70.88 100.969 70.9933 101.342 71.22C101.722 71.44 102.016 71.7467 102.222 72.14C102.436 72.5333 102.542 72.9867 102.542 73.5C102.542 74.0133 102.436 74.4667 102.222 74.86C102.016 75.2533 101.726 75.5633 101.352 75.79C100.979 76.01 100.549 76.12 100.062 76.12ZM100.062 75.38C100.396 75.38 100.686 75.3 100.932 75.14C101.179 74.98 101.372 74.76 101.512 74.48C101.659 74.2 101.732 73.8733 101.732 73.5C101.732 73.1267 101.659 72.8 101.512 72.52C101.372 72.24 101.176 72.02 100.922 71.86C100.669 71.7 100.376 71.62 100.042 71.62C99.7157 71.62 99.4257 71.7 99.1723 71.86C98.9257 72.02 98.729 72.24 98.5823 72.52C98.4423 72.8 98.3723 73.1267 98.3723 73.5C98.3723 73.8667 98.4423 74.1933 98.5823 74.48C98.729 74.76 98.929 74.98 99.1823 75.14C99.4423 75.3 99.7357 75.38 100.062 75.38ZM105.863 76.12C105.376 76.12 104.943 76.01 104.563 75.79C104.19 75.5633 103.896 75.2533 103.683 74.86C103.47 74.4667 103.363 74.0133 103.363 73.5C103.363 72.9867 103.466 72.5333 103.673 72.14C103.886 71.7467 104.18 71.44 104.553 71.22C104.933 70.9933 105.363 70.88 105.843 70.88C106.336 70.88 106.77 70.9933 107.143 71.22C107.523 71.44 107.816 71.7467 108.023 72.14C108.236 72.5333 108.343 72.9867 108.343 73.5C108.343 74.0133 108.236 74.4667 108.023 74.86C107.816 75.2533 107.526 75.5633 107.153 75.79C106.78 76.01 106.35 76.12 105.863 76.12ZM105.863 75.38C106.196 75.38 106.486 75.3 106.733 75.14C106.98 74.98 107.173 74.76 107.313 74.48C107.46 74.2 107.533 73.8733 107.533 73.5C107.533 73.1267 107.46 72.8 107.313 72.52C107.173 72.24 106.976 72.02 106.723 71.86C106.47 71.7 106.176 71.62 105.843 71.62C105.516 71.62 105.226 71.7 104.973 71.86C104.726 72.02 104.53 72.24 104.383 72.52C104.243 72.8 104.173 73.1267 104.173 73.5C104.173 73.8667 104.243 74.1933 104.383 74.48C104.53 74.76 104.73 74.98 104.983 75.14C105.243 75.3 105.536 75.38 105.863 75.38ZM111.424 76.12C110.977 76.12 110.584 76.01 110.244 75.79C109.904 75.57 109.637 75.2633 109.444 74.87C109.257 74.47 109.164 74.0133 109.164 73.5C109.164 72.98 109.257 72.5233 109.444 72.13C109.637 71.7367 109.904 71.43 110.244 71.21C110.584 70.99 110.977 70.88 111.424 70.88C111.791 70.88 112.117 70.9667 112.404 71.14C112.697 71.3067 112.934 71.54 113.114 71.84V69H113.914V76H113.154L113.114 75.15C112.934 75.45 112.697 75.6867 112.404 75.86C112.117 76.0333 111.791 76.12 111.424 76.12ZM111.604 75.39C111.897 75.39 112.154 75.3133 112.374 75.16C112.601 75 112.777 74.78 112.904 74.5C113.037 74.2133 113.107 73.8933 113.114 73.54V73.47C113.107 73.11 113.037 72.79 112.904 72.51C112.777 72.2233 112.601 72.0033 112.374 71.85C112.147 71.69 111.887 71.61 111.594 71.61C111.281 71.61 111.001 71.69 110.754 71.85C110.507 72.01 110.314 72.2333 110.174 72.52C110.041 72.8067 109.974 73.1333 109.974 73.5C109.974 73.8667 110.044 74.1933 110.184 74.48C110.324 74.7667 110.517 74.99 110.764 75.15C111.011 75.31 111.291 75.39 111.604 75.39ZM118.604 69.83C118.471 69.83 118.354 69.78 118.254 69.68C118.154 69.58 118.104 69.4633 118.104 69.33C118.104 69.1833 118.154 69.0633 118.254 68.97C118.354 68.87 118.471 68.82 118.604 68.82C118.744 68.82 118.864 68.87 118.964 68.97C119.064 69.0633 119.114 69.1833 119.114 69.33C119.114 69.4633 119.064 69.58 118.964 69.68C118.864 69.78 118.744 69.83 118.604 69.83ZM117.494 78.15C117.247 78.15 116.934 78.0633 116.554 77.89L116.854 77.22C117.014 77.28 117.147 77.3267 117.254 77.36C117.367 77.3933 117.457 77.41 117.524 77.41C117.977 77.41 118.204 77.12 118.204 76.54V71H119.004V76.56C119.004 77.08 118.877 77.4733 118.624 77.74C118.371 78.0133 117.994 78.15 117.494 78.15ZM122.68 76.12C122.193 76.12 121.76 76.01 121.38 75.79C121.006 75.5633 120.713 75.2533 120.5 74.86C120.286 74.4667 120.18 74.0133 120.18 73.5C120.18 72.9867 120.283 72.5333 120.49 72.14C120.703 71.7467 120.996 71.44 121.37 71.22C121.75 70.9933 122.18 70.88 122.66 70.88C123.153 70.88 123.586 70.9933 123.96 71.22C124.34 71.44 124.633 71.7467 124.84 72.14C125.053 72.5333 125.16 72.9867 125.16 73.5C125.16 74.0133 125.053 74.4667 124.84 74.86C124.633 75.2533 124.343 75.5633 123.97 75.79C123.596 76.01 123.166 76.12 122.68 76.12ZM122.68 75.38C123.013 75.38 123.303 75.3 123.55 75.14C123.796 74.98 123.99 74.76 124.13 74.48C124.276 74.2 124.35 73.8733 124.35 73.5C124.35 73.1267 124.276 72.8 124.13 72.52C123.99 72.24 123.793 72.02 123.54 71.86C123.286 71.7 122.993 71.62 122.66 71.62C122.333 71.62 122.043 71.7 121.79 71.86C121.543 72.02 121.346 72.24 121.2 72.52C121.06 72.8 120.99 73.1267 120.99 73.5C120.99 73.8667 121.06 74.1933 121.2 74.48C121.346 74.76 121.546 74.98 121.8 75.14C122.06 75.3 122.353 75.38 122.68 75.38ZM128.08 76.12C127.694 76.12 127.354 76.0433 127.06 75.89C126.774 75.73 126.547 75.48 126.38 75.14C126.22 74.7933 126.14 74.3467 126.14 73.8V71H126.94V73.56C126.94 74.0533 126.997 74.43 127.11 74.69C127.224 74.95 127.38 75.13 127.58 75.23C127.787 75.3233 128.017 75.37 128.27 75.37C128.704 75.37 129.04 75.2133 129.28 74.9C129.527 74.5867 129.65 74.15 129.65 73.59V71H130.45V76H129.7L129.66 75.25C129.494 75.53 129.277 75.7467 129.01 75.9C128.744 76.0467 128.434 76.12 128.08 76.12ZM131.846 76V71H132.646V71.89C132.846 71.5767 133.103 71.3467 133.416 71.2C133.736 71.0533 134.07 70.98 134.416 70.98V71.73C134.123 71.73 133.84 71.78 133.566 71.88C133.3 71.9733 133.08 72.13 132.906 72.35C132.733 72.57 132.646 72.87 132.646 73.25V76H131.846ZM135.225 76V71H135.975L136.015 71.75C136.182 71.47 136.399 71.2567 136.665 71.11C136.932 70.9567 137.242 70.88 137.595 70.88C137.989 70.88 138.329 70.96 138.615 71.12C138.909 71.2733 139.135 71.52 139.295 71.86C139.462 72.2 139.542 72.6467 139.535 73.2V76H138.735V73.44C138.735 72.9467 138.679 72.57 138.565 72.31C138.452 72.05 138.295 71.8733 138.095 71.78C137.895 71.68 137.669 71.63 137.415 71.63C136.975 71.63 136.632 71.7867 136.385 72.1C136.145 72.4067 136.025 72.8433 136.025 73.41V76H135.225ZM142.992 76.12C142.505 76.12 142.075 76.01 141.702 75.79C141.328 75.5633 141.035 75.2533 140.822 74.86C140.615 74.4667 140.512 74.0133 140.512 73.5C140.512 72.9867 140.615 72.5333 140.822 72.14C141.035 71.7467 141.325 71.44 141.692 71.22C142.065 70.9933 142.492 70.88 142.972 70.88C143.438 70.88 143.842 70.9967 144.182 71.23C144.522 71.4567 144.785 71.7767 144.972 72.19C145.158 72.6033 145.252 73.09 145.252 73.65H141.322C141.355 74.1967 141.528 74.6233 141.842 74.93C142.155 75.2367 142.552 75.39 143.032 75.39C143.385 75.39 143.682 75.3067 143.922 75.14C144.168 74.9733 144.358 74.7533 144.492 74.48L145.182 74.83C145.055 75.09 144.885 75.3167 144.672 75.51C144.465 75.7033 144.218 75.8533 143.932 75.96C143.652 76.0667 143.338 76.12 142.992 76.12ZM141.382 72.98H144.392C144.372 72.6933 144.295 72.4467 144.162 72.24C144.035 72.0333 143.868 71.8733 143.662 71.76C143.455 71.6467 143.222 71.59 142.962 71.59C142.708 71.59 142.465 71.6467 142.232 71.76C141.998 71.8667 141.805 72.0267 141.652 72.24C141.498 72.4467 141.408 72.6933 141.382 72.98ZM146.584 78.12C146.457 78.12 146.31 78.0933 146.144 78.04C145.977 77.9933 145.8 77.93 145.614 77.85L145.914 77.18C146.067 77.2467 146.2 77.2967 146.314 77.33C146.434 77.3633 146.527 77.38 146.594 77.38C146.774 77.38 146.92 77.33 147.034 77.23C147.154 77.1367 147.254 77 147.334 76.82L147.674 75.98L145.524 71H146.374L148.074 75.05L149.754 71H150.614L148.214 76.7C148.087 76.9933 147.954 77.2467 147.814 77.46C147.68 77.6733 147.517 77.8367 147.324 77.95C147.13 78.0633 146.884 78.12 146.584 78.12ZM155.748 76.12C155.261 76.12 154.885 75.9933 154.618 75.74C154.351 75.4867 154.218 75.13 154.218 74.67V71.71H153.348V71H154.218V69.44H155.018V71H156.518V71.71H155.018V74.59C155.018 74.8433 155.085 75.04 155.218 75.18C155.358 75.3133 155.551 75.38 155.798 75.38C155.878 75.38 155.955 75.37 156.028 75.35C156.108 75.3233 156.211 75.2633 156.338 75.17L156.648 75.82C156.475 75.9333 156.318 76.01 156.178 76.05C156.038 76.0967 155.895 76.12 155.748 76.12ZM157.647 76V69H158.447V71.73C158.614 71.4567 158.831 71.2467 159.097 71.1C159.364 70.9533 159.674 70.88 160.027 70.88C160.414 70.88 160.754 70.96 161.047 71.12C161.341 71.2733 161.567 71.52 161.727 71.86C161.894 72.2 161.974 72.6467 161.967 73.2V76H161.167V73.44C161.167 72.9467 161.107 72.57 160.987 72.31C160.874 72.05 160.717 71.8733 160.517 71.78C160.317 71.68 160.091 71.63 159.837 71.63C159.397 71.63 159.054 71.7867 158.807 72.1C158.567 72.4067 158.447 72.8433 158.447 73.41V76H157.647ZM165.413 76.12C164.927 76.12 164.497 76.01 164.123 75.79C163.75 75.5633 163.457 75.2533 163.243 74.86C163.037 74.4667 162.933 74.0133 162.933 73.5C162.933 72.9867 163.037 72.5333 163.243 72.14C163.457 71.7467 163.747 71.44 164.113 71.22C164.487 70.9933 164.913 70.88 165.393 70.88C165.86 70.88 166.263 70.9967 166.603 71.23C166.943 71.4567 167.207 71.7767 167.393 72.19C167.58 72.6033 167.673 73.09 167.673 73.65H163.743C163.777 74.1967 163.95 74.6233 164.263 74.93C164.577 75.2367 164.973 75.39 165.453 75.39C165.807 75.39 166.103 75.3067 166.343 75.14C166.59 74.9733 166.78 74.7533 166.913 74.48L167.603 74.83C167.477 75.09 167.307 75.3167 167.093 75.51C166.887 75.7033 166.64 75.8533 166.353 75.96C166.073 76.0667 165.76 76.12 165.413 76.12ZM163.803 72.98H166.813C166.793 72.6933 166.717 72.4467 166.583 72.24C166.457 72.0333 166.29 71.8733 166.083 71.76C165.877 71.6467 165.643 71.59 165.383 71.59C165.13 71.59 164.887 71.6467 164.653 71.76C164.42 71.8667 164.227 72.0267 164.073 72.24C163.92 72.4467 163.83 72.6933 163.803 72.98ZM171.153 76V71H171.953V71.89C172.153 71.5767 172.41 71.3467 172.723 71.2C173.043 71.0533 173.376 70.98 173.723 70.98V71.73C173.43 71.73 173.146 71.78 172.873 71.88C172.606 71.9733 172.386 72.13 172.213 72.35C172.04 72.57 171.953 72.87 171.953 73.25V76H171.153ZM174.582 76V71H175.382V76H174.582ZM174.992 69.84C174.859 69.84 174.742 69.79 174.642 69.69C174.542 69.59 174.492 69.4733 174.492 69.34C174.492 69.2 174.542 69.0833 174.642 68.99C174.742 68.89 174.859 68.84 174.992 68.84C175.132 68.84 175.249 68.89 175.342 68.99C175.442 69.0833 175.492 69.2 175.492 69.34C175.492 69.4733 175.442 69.59 175.342 69.69C175.249 69.79 175.132 69.84 174.992 69.84ZM178.856 78.12C178.536 78.12 178.243 78.0867 177.976 78.02C177.716 77.96 177.493 77.89 177.306 77.81C177.126 77.7367 176.996 77.6733 176.916 77.62L177.216 76.97C177.303 77.0167 177.426 77.0733 177.586 77.14C177.746 77.2133 177.933 77.2733 178.146 77.32C178.366 77.3733 178.6 77.4 178.846 77.4C179.166 77.4 179.453 77.3333 179.706 77.2C179.966 77.0733 180.166 76.87 180.306 76.59C180.453 76.3167 180.526 75.9633 180.526 75.53V75C180.346 75.3 180.11 75.5367 179.816 75.71C179.523 75.8767 179.193 75.96 178.826 75.96C178.38 75.96 177.986 75.8533 177.646 75.64C177.306 75.4267 177.04 75.13 176.846 74.75C176.66 74.3633 176.566 73.9233 176.566 73.43C176.566 72.9233 176.66 72.48 176.846 72.1C177.04 71.7133 177.306 71.4133 177.646 71.2C177.986 70.9867 178.38 70.88 178.826 70.88C179.193 70.88 179.523 70.9633 179.816 71.13C180.11 71.2967 180.346 71.5333 180.526 71.84V71H181.326V75.52C181.326 76.0933 181.22 76.5733 181.006 76.96C180.793 77.3467 180.5 77.6367 180.126 77.83C179.753 78.0233 179.33 78.12 178.856 78.12ZM179.016 75.27C179.31 75.27 179.57 75.19 179.796 75.03C180.023 74.87 180.2 74.6533 180.326 74.38C180.453 74.1 180.516 73.7767 180.516 73.41C180.516 73.0567 180.45 72.7433 180.316 72.47C180.19 72.19 180.013 71.9733 179.786 71.82C179.566 71.66 179.306 71.58 179.006 71.58C178.693 71.58 178.413 71.66 178.166 71.82C177.926 71.9733 177.736 72.19 177.596 72.47C177.463 72.7433 177.396 73.0567 177.396 73.41C177.396 73.7767 177.466 74.1 177.606 74.38C177.746 74.6533 177.936 74.87 178.176 75.03C178.423 75.19 178.703 75.27 179.016 75.27ZM182.725 76V69H183.525V71.73C183.692 71.4567 183.909 71.2467 184.175 71.1C184.442 70.9533 184.752 70.88 185.105 70.88C185.492 70.88 185.832 70.96 186.125 71.12C186.419 71.2733 186.645 71.52 186.805 71.86C186.972 72.2 187.052 72.6467 187.045 73.2V76H186.245V73.44C186.245 72.9467 186.185 72.57 186.065 72.31C185.952 72.05 185.795 71.8733 185.595 71.78C185.395 71.68 185.169 71.63 184.915 71.63C184.475 71.63 184.132 71.7867 183.885 72.1C183.645 72.4067 183.525 72.8433 183.525 73.41V76H182.725ZM190.182 76.12C189.695 76.12 189.318 75.9933 189.052 75.74C188.785 75.4867 188.652 75.13 188.652 74.67V71.71H187.782V71H188.652V69.44H189.452V71H190.952V71.71H189.452V74.59C189.452 74.8433 189.518 75.04 189.652 75.18C189.792 75.3133 189.985 75.38 190.232 75.38C190.312 75.38 190.388 75.37 190.462 75.35C190.542 75.3233 190.645 75.2633 190.772 75.17L191.082 75.82C190.908 75.9333 190.752 76.01 190.612 76.05C190.472 76.0967 190.328 76.12 190.182 76.12ZM195.652 76L193.952 71H194.762L196.062 74.88L197.382 71H198.182L199.482 74.85L200.782 71H201.592L199.892 76H199.092L197.782 72.09L196.462 76H195.652ZM203.856 76.12C203.27 76.12 202.81 75.9867 202.476 75.72C202.15 75.4467 201.986 75.07 201.986 74.59C201.986 74.0833 202.153 73.6967 202.486 73.43C202.826 73.1567 203.3 73.02 203.906 73.02H205.296C205.263 72.5467 205.146 72.1933 204.946 71.96C204.746 71.72 204.446 71.6 204.046 71.6C203.773 71.6 203.536 71.6567 203.336 71.77C203.143 71.8767 202.983 72.05 202.856 72.29L202.136 72.01C202.263 71.7767 202.416 71.5767 202.596 71.41C202.776 71.2367 202.986 71.1067 203.226 71.02C203.466 70.9267 203.74 70.88 204.046 70.88C204.513 70.88 204.896 70.9733 205.196 71.16C205.503 71.34 205.733 71.61 205.886 71.97C206.04 72.3233 206.113 72.7633 206.106 73.29L206.096 76H205.356L205.316 75.33C205.17 75.5833 204.973 75.78 204.726 75.92C204.48 76.0533 204.19 76.12 203.856 76.12ZM203.896 75.42C204.183 75.42 204.433 75.36 204.646 75.24C204.86 75.1133 205.023 74.9367 205.136 74.71C205.256 74.4833 205.316 74.21 205.316 73.89V73.69H204.086C203.62 73.69 203.286 73.7667 203.086 73.92C202.893 74.0733 202.796 74.2933 202.796 74.58C202.796 74.84 202.893 75.0467 203.086 75.2C203.28 75.3467 203.55 75.42 203.896 75.42ZM207.746 78.12C207.619 78.12 207.472 78.0933 207.306 78.04C207.139 77.9933 206.962 77.93 206.776 77.85L207.076 77.18C207.229 77.2467 207.362 77.2967 207.476 77.33C207.596 77.3633 207.689 77.38 207.756 77.38C207.936 77.38 208.082 77.33 208.196 77.23C208.316 77.1367 208.416 77 208.496 76.82L208.836 75.98L206.686 71H207.536L209.236 75.05L210.916 71H211.776L209.376 76.7C209.249 76.9933 209.116 77.2467 208.976 77.46C208.842 77.6733 208.679 77.8367 208.486 77.95C208.292 78.0633 208.046 78.12 207.746 78.12ZM17.8 92L16.1 87H16.91L18.21 90.88L19.53 87H20.33L21.63 90.85L22.93 87H23.74L22.04 92H21.24L19.93 88.09L18.61 92H17.8ZM24.5918 92V87H25.3918V92H24.5918ZM25.0018 85.84C24.8685 85.84 24.7518 85.79 24.6518 85.69C24.5518 85.59 24.5018 85.4733 24.5018 85.34C24.5018 85.2 24.5518 85.0833 24.6518 84.99C24.7518 84.89 24.8685 84.84 25.0018 84.84C25.1418 84.84 25.2585 84.89 25.3518 84.99C25.4518 85.0833 25.5018 85.2 25.5018 85.34C25.5018 85.4733 25.4518 85.59 25.3518 85.69C25.2585 85.79 25.1418 85.84 25.0018 85.84ZM28.746 92.12C28.2593 92.12 27.8827 91.9933 27.616 91.74C27.3493 91.4867 27.216 91.13 27.216 90.67V87.71H26.346V87H27.216V85.44H28.016V87H29.516V87.71H28.016V90.59C28.016 90.8433 28.0827 91.04 28.216 91.18C28.356 91.3133 28.5493 91.38 28.796 91.38C28.876 91.38 28.9527 91.37 29.026 91.35C29.106 91.3233 29.2093 91.2633 29.336 91.17L29.646 91.82C29.4727 91.9333 29.316 92.01 29.176 92.05C29.036 92.0967 28.8927 92.12 28.746 92.12ZM30.6453 92V85H31.4453V87.73C31.612 87.4567 31.8286 87.2467 32.0953 87.1C32.362 86.9533 32.672 86.88 33.0253 86.88C33.412 86.88 33.752 86.96 34.0453 87.12C34.3386 87.2733 34.5653 87.52 34.7253 87.86C34.892 88.2 34.972 88.6467 34.9653 89.2V92H34.1653V89.44C34.1653 88.9467 34.1053 88.57 33.9853 88.31C33.872 88.05 33.7153 87.8733 33.5153 87.78C33.3153 87.68 33.0886 87.63 32.8353 87.63C32.3953 87.63 32.052 87.7867 31.8053 88.1C31.5653 88.4067 31.4453 88.8433 31.4453 89.41V92H30.6453ZM40.4422 92.12C40.0755 92.12 39.7555 92.0667 39.4822 91.96C39.2089 91.8467 38.9789 91.7 38.7922 91.52C38.6122 91.34 38.4822 91.1433 38.4022 90.93L39.1022 90.64C39.2155 90.8667 39.3855 91.05 39.6122 91.19C39.8389 91.33 40.0889 91.4 40.3622 91.4C40.6755 91.4 40.9389 91.34 41.1522 91.22C41.3655 91.0933 41.4722 90.9167 41.4722 90.69C41.4722 90.4833 41.3922 90.3167 41.2322 90.19C41.0789 90.0633 40.8489 89.96 40.5422 89.88L40.0622 89.75C39.6089 89.63 39.2555 89.45 39.0022 89.21C38.7489 88.9633 38.6222 88.6867 38.6222 88.38C38.6222 87.9067 38.7755 87.54 39.0822 87.28C39.3955 87.0133 39.8589 86.88 40.4722 86.88C40.7655 86.88 41.0322 86.9233 41.2722 87.01C41.5122 87.0967 41.7189 87.22 41.8922 87.38C42.0655 87.5333 42.1922 87.7167 42.2722 87.93L41.5722 88.24C41.4855 88.0133 41.3422 87.85 41.1422 87.75C40.9422 87.65 40.6989 87.6 40.4122 87.6C40.1055 87.6 39.8655 87.6667 39.6922 87.8C39.5189 87.9267 39.4322 88.1067 39.4322 88.34C39.4322 88.4733 39.5022 88.6 39.6422 88.72C39.7889 88.8333 40.0022 88.9267 40.2822 89L40.7822 89.13C41.1089 89.21 41.3822 89.33 41.6022 89.49C41.8222 89.6433 41.9889 89.82 42.1022 90.02C42.2155 90.22 42.2722 90.4333 42.2722 90.66C42.2722 90.96 42.1922 91.22 42.0322 91.44C41.8722 91.66 41.6555 91.83 41.3822 91.95C41.1089 92.0633 40.7955 92.12 40.4422 92.12ZM43.4004 92V87H44.2004V92H43.4004ZM43.8104 85.84C43.6771 85.84 43.5604 85.79 43.4604 85.69C43.3604 85.59 43.3104 85.4733 43.3104 85.34C43.3104 85.2 43.3604 85.0833 43.4604 84.99C43.5604 84.89 43.6771 84.84 43.8104 84.84C43.9504 84.84 44.0671 84.89 44.1604 84.99C44.2604 85.0833 44.3104 85.2 44.3104 85.34C44.3104 85.4733 44.2604 85.59 44.1604 85.69C44.0671 85.79 43.9504 85.84 43.8104 85.84ZM45.6746 92V87H46.4246L46.4646 87.7C46.6179 87.4333 46.8146 87.23 47.0546 87.09C47.2946 86.95 47.5746 86.88 47.8946 86.88C48.2946 86.88 48.6346 86.9733 48.9146 87.16C49.2013 87.3467 49.4079 87.63 49.5346 88.01C49.6746 87.6433 49.8779 87.3633 50.1446 87.17C50.4179 86.9767 50.7413 86.88 51.1146 86.88C51.6746 86.88 52.1146 87.0667 52.4346 87.44C52.7613 87.8133 52.9213 88.38 52.9146 89.14V92H52.1146V89.44C52.1146 88.9467 52.0613 88.57 51.9546 88.31C51.8546 88.05 51.7179 87.8733 51.5446 87.78C51.3713 87.68 51.1713 87.63 50.9446 87.63C50.5513 87.63 50.2446 87.7867 50.0246 88.1C49.8046 88.4067 49.6946 88.8433 49.6946 89.41V92H48.8946V89.44C48.8946 88.9467 48.8413 88.57 48.7346 88.31C48.6346 88.05 48.4946 87.8733 48.3146 87.78C48.1413 87.68 47.9413 87.63 47.7146 87.63C47.3279 87.63 47.0246 87.7867 46.8046 88.1C46.5846 88.4067 46.4746 88.8433 46.4746 89.41V92H45.6746ZM54.2305 94V87H54.9805L55.0205 87.85C55.2071 87.55 55.4438 87.3133 55.7305 87.14C56.0238 86.9667 56.3538 86.88 56.7205 86.88C57.1671 86.88 57.5605 86.99 57.9005 87.21C58.2405 87.43 58.5038 87.7367 58.6905 88.13C58.8838 88.5233 58.9805 88.98 58.9805 89.5C58.9805 90.0133 58.8838 90.47 58.6905 90.87C58.5038 91.2633 58.2405 91.57 57.9005 91.79C57.5605 92.01 57.1671 92.12 56.7205 92.12C56.3538 92.12 56.0271 92.0367 55.7405 91.87C55.4538 91.6967 55.2171 91.46 55.0305 91.16V94H54.2305ZM56.5405 91.39C56.8538 91.39 57.1305 91.31 57.3705 91.15C57.6171 90.99 57.8105 90.7667 57.9505 90.48C58.0971 90.1933 58.1705 89.8667 58.1705 89.5C58.1705 89.1333 58.1005 88.8067 57.9605 88.52C57.8271 88.2333 57.6371 88.01 57.3905 87.85C57.1438 87.69 56.8638 87.61 56.5505 87.61C56.2571 87.61 55.9938 87.69 55.7605 87.85C55.5338 88.01 55.3538 88.2333 55.2205 88.52C55.0938 88.8067 55.0305 89.1333 55.0305 89.5C55.0305 89.8667 55.0938 90.1933 55.2205 90.48C55.3538 90.7667 55.5338 90.99 55.7605 91.15C55.9871 91.31 56.2471 91.39 56.5405 91.39ZM60.0887 92V85H60.8887V92H60.0887ZM64.4759 92.12C63.9893 92.12 63.5593 92.01 63.1859 91.79C62.8126 91.5633 62.5193 91.2533 62.3059 90.86C62.0993 90.4667 61.9959 90.0133 61.9959 89.5C61.9959 88.9867 62.0993 88.5333 62.3059 88.14C62.5193 87.7467 62.8093 87.44 63.1759 87.22C63.5493 86.9933 63.9759 86.88 64.4559 86.88C64.9226 86.88 65.3259 86.9967 65.6659 87.23C66.0059 87.4567 66.2693 87.7767 66.4559 88.19C66.6426 88.6033 66.7359 89.09 66.7359 89.65H62.8059C62.8393 90.1967 63.0126 90.6233 63.3259 90.93C63.6393 91.2367 64.0359 91.39 64.5159 91.39C64.8693 91.39 65.1659 91.3067 65.4059 91.14C65.6526 90.9733 65.8426 90.7533 65.9759 90.48L66.6659 90.83C66.5393 91.09 66.3693 91.3167 66.1559 91.51C65.9493 91.7033 65.7026 91.8533 65.4159 91.96C65.1359 92.0667 64.8226 92.12 64.4759 92.12ZM62.8659 88.98H65.8759C65.8559 88.6933 65.7793 88.4467 65.6459 88.24C65.5193 88.0333 65.3526 87.8733 65.1459 87.76C64.9393 87.6467 64.7059 87.59 64.4459 87.59C64.1926 87.59 63.9493 87.6467 63.7159 87.76C63.4826 87.8667 63.2893 88.0267 63.1359 88.24C62.9826 88.4467 62.8926 88.6933 62.8659 88.98ZM72.7056 92.12C72.339 92.12 72.0123 92.0333 71.7256 91.86C71.439 91.6867 71.2023 91.45 71.0156 91.15L70.9756 92H70.2156V85H71.0156V87.84C71.2023 87.54 71.439 87.3067 71.7256 87.14C72.0123 86.9667 72.339 86.88 72.7056 86.88C73.1523 86.88 73.5456 86.99 73.8856 87.21C74.2256 87.43 74.489 87.7367 74.6756 88.13C74.869 88.5233 74.9656 88.98 74.9656 89.5C74.9656 90.0133 74.869 90.47 74.6756 90.87C74.489 91.2633 74.2256 91.57 73.8856 91.79C73.5456 92.01 73.1523 92.12 72.7056 92.12ZM72.5256 91.39C72.839 91.39 73.1156 91.31 73.3556 91.15C73.6023 90.99 73.7956 90.7667 73.9356 90.48C74.0823 90.1933 74.1556 89.8667 74.1556 89.5C74.1556 89.1333 74.0856 88.8067 73.9456 88.52C73.8123 88.2333 73.6223 88.01 73.3756 87.85C73.129 87.69 72.849 87.61 72.5356 87.61C72.2423 87.61 71.979 87.69 71.7456 87.85C71.519 88.01 71.339 88.2333 71.2056 88.52C71.079 88.8067 71.0156 89.1333 71.0156 89.5C71.0156 89.8667 71.079 90.1933 71.2056 90.48C71.339 90.7667 71.519 90.99 71.7456 91.15C71.9723 91.31 72.2323 91.39 72.5256 91.39ZM77.655 92.12C77.0683 92.12 76.6083 91.9867 76.275 91.72C75.9483 91.4467 75.785 91.07 75.785 90.59C75.785 90.0833 75.9517 89.6967 76.285 89.43C76.625 89.1567 77.0983 89.02 77.705 89.02H79.095C79.0617 88.5467 78.945 88.1933 78.745 87.96C78.545 87.72 78.245 87.6 77.845 87.6C77.5717 87.6 77.335 87.6567 77.135 87.77C76.9417 87.8767 76.7817 88.05 76.655 88.29L75.935 88.01C76.0617 87.7767 76.215 87.5767 76.395 87.41C76.575 87.2367 76.785 87.1067 77.025 87.02C77.265 86.9267 77.5383 86.88 77.845 86.88C78.3117 86.88 78.695 86.9733 78.995 87.16C79.3017 87.34 79.5317 87.61 79.685 87.97C79.8383 88.3233 79.9117 88.7633 79.905 89.29L79.895 92H79.155L79.115 91.33C78.9683 91.5833 78.7717 91.78 78.525 91.92C78.2783 92.0533 77.9883 92.12 77.655 92.12ZM77.695 91.42C77.9817 91.42 78.2317 91.36 78.445 91.24C78.6583 91.1133 78.8217 90.9367 78.935 90.71C79.055 90.4833 79.115 90.21 79.115 89.89V89.69H77.885C77.4183 89.69 77.085 89.7667 76.885 89.92C76.6917 90.0733 76.595 90.2933 76.595 90.58C76.595 90.84 76.6917 91.0467 76.885 91.2C77.0783 91.3467 77.3483 91.42 77.695 91.42ZM82.9227 92.12C82.556 92.12 82.236 92.0667 81.9627 91.96C81.6893 91.8467 81.4593 91.7 81.2727 91.52C81.0927 91.34 80.9627 91.1433 80.8827 90.93L81.5827 90.64C81.696 90.8667 81.866 91.05 82.0927 91.19C82.3193 91.33 82.5693 91.4 82.8427 91.4C83.156 91.4 83.4193 91.34 83.6327 91.22C83.846 91.0933 83.9527 90.9167 83.9527 90.69C83.9527 90.4833 83.8727 90.3167 83.7127 90.19C83.5593 90.0633 83.3293 89.96 83.0227 89.88L82.5427 89.75C82.0893 89.63 81.736 89.45 81.4827 89.21C81.2293 88.9633 81.1027 88.6867 81.1027 88.38C81.1027 87.9067 81.256 87.54 81.5627 87.28C81.876 87.0133 82.3393 86.88 82.9527 86.88C83.246 86.88 83.5127 86.9233 83.7527 87.01C83.9927 87.0967 84.1993 87.22 84.3727 87.38C84.546 87.5333 84.6727 87.7167 84.7527 87.93L84.0527 88.24C83.966 88.0133 83.8227 87.85 83.6227 87.75C83.4227 87.65 83.1793 87.6 82.8927 87.6C82.586 87.6 82.346 87.6667 82.1727 87.8C81.9993 87.9267 81.9127 88.1067 81.9127 88.34C81.9127 88.4733 81.9827 88.6 82.1227 88.72C82.2693 88.8333 82.4827 88.9267 82.7627 89L83.2627 89.13C83.5893 89.21 83.8627 89.33 84.0827 89.49C84.3027 89.6433 84.4693 89.82 84.5827 90.02C84.696 90.22 84.7527 90.4333 84.7527 90.66C84.7527 90.96 84.6727 91.22 84.5127 91.44C84.3527 91.66 84.136 91.83 83.8627 91.95C83.5893 92.0633 83.276 92.12 82.9227 92.12ZM85.8809 92V87H86.6809V92H85.8809ZM86.2909 85.84C86.1575 85.84 86.0409 85.79 85.9409 85.69C85.8409 85.59 85.7909 85.4733 85.7909 85.34C85.7909 85.2 85.8409 85.0833 85.9409 84.99C86.0409 84.89 86.1575 84.84 86.2909 84.84C86.4309 84.84 86.5475 84.89 86.6409 84.99C86.7409 85.0833 86.7909 85.2 86.7909 85.34C86.7909 85.4733 86.7409 85.59 86.6409 85.69C86.5475 85.79 86.4309 85.84 86.2909 85.84ZM90.3851 92.12C89.8917 92.12 89.4551 92.01 89.0751 91.79C88.6951 91.5633 88.3984 91.2533 88.1851 90.86C87.9717 90.4667 87.8651 90.0133 87.8651 89.5C87.8651 88.9867 87.9684 88.5333 88.1751 88.14C88.3884 87.7467 88.6851 87.44 89.0651 87.22C89.4451 86.9933 89.8784 86.88 90.3651 86.88C90.8451 86.88 91.2751 86.99 91.6551 87.21C92.0351 87.43 92.3251 87.74 92.5251 88.14L91.7951 88.47C91.6617 88.2033 91.4684 87.9967 91.2151 87.85C90.9617 87.6967 90.6717 87.62 90.3451 87.62C90.0184 87.62 89.7284 87.7 89.4751 87.86C89.2284 88.02 89.0317 88.2433 88.8851 88.53C88.7451 88.81 88.6751 89.1333 88.6751 89.5C88.6751 89.8667 88.7451 90.1933 88.8851 90.48C89.0317 90.76 89.2317 90.98 89.4851 91.14C89.7451 91.3 90.0384 91.38 90.3651 91.38C90.6917 91.38 90.9817 91.2967 91.2351 91.13C91.4951 90.9633 91.6917 90.73 91.8251 90.43L92.5551 90.76C92.3551 91.1867 92.0651 91.52 91.6851 91.76C91.3051 92 90.8717 92.12 90.3851 92.12ZM95.3152 92.12C94.9486 92.12 94.6286 92.0667 94.3552 91.96C94.0819 91.8467 93.8519 91.7 93.6652 91.52C93.4852 91.34 93.3552 91.1433 93.2752 90.93L93.9752 90.64C94.0886 90.8667 94.2586 91.05 94.4852 91.19C94.7119 91.33 94.9619 91.4 95.2352 91.4C95.5486 91.4 95.8119 91.34 96.0252 91.22C96.2386 91.0933 96.3452 90.9167 96.3452 90.69C96.3452 90.4833 96.2652 90.3167 96.1052 90.19C95.9519 90.0633 95.7219 89.96 95.4152 89.88L94.9352 89.75C94.4819 89.63 94.1286 89.45 93.8752 89.21C93.6219 88.9633 93.4952 88.6867 93.4952 88.38C93.4952 87.9067 93.6486 87.54 93.9552 87.28C94.2686 87.0133 94.7319 86.88 95.3452 86.88C95.6386 86.88 95.9052 86.9233 96.1452 87.01C96.3852 87.0967 96.5919 87.22 96.7652 87.38C96.9386 87.5333 97.0652 87.7167 97.1452 87.93L96.4452 88.24C96.3586 88.0133 96.2152 87.85 96.0152 87.75C95.8152 87.65 95.5719 87.6 95.2852 87.6C94.9786 87.6 94.7386 87.6667 94.5652 87.8C94.3919 87.9267 94.3052 88.1067 94.3052 88.34C94.3052 88.4733 94.3752 88.6 94.5152 88.72C94.6619 88.8333 94.8752 88.9267 95.1552 89L95.6552 89.13C95.9819 89.21 96.2552 89.33 96.4752 89.49C96.6952 89.6433 96.8619 89.82 96.9752 90.02C97.0886 90.22 97.1452 90.4333 97.1452 90.66C97.1452 90.96 97.0652 91.22 96.9052 91.44C96.7452 91.66 96.5286 91.83 96.2552 91.95C95.9819 92.0633 95.6686 92.12 95.3152 92.12ZM98.5634 92.14C98.4101 92.14 98.2768 92.0867 98.1634 91.98C98.0568 91.8667 98.0034 91.7367 98.0034 91.59C98.0034 91.4367 98.0568 91.3067 98.1634 91.2C98.2768 91.0867 98.4101 91.03 98.5634 91.03C98.7168 91.03 98.8468 91.0867 98.9534 91.2C99.0601 91.3067 99.1134 91.4367 99.1134 91.59C99.1134 91.7367 99.0601 91.8667 98.9534 91.98C98.8468 92.0867 98.7168 92.14 98.5634 92.14Z" fill="white"/>
<rect x="16" y="108" width="208" height="49" rx="24.5" fill="#EAEC98"/>
<path d="M82.397 137.5V128.426H85.816C86.5267 128.426 87.1247 128.543 87.61 128.777C88.0953 129.011 88.4593 129.336 88.702 129.752C88.9533 130.159 89.079 130.627 89.079 131.156C89.079 131.737 88.897 132.235 88.533 132.651C88.1777 133.058 87.7053 133.331 87.116 133.47C87.5667 133.626 87.9697 133.89 88.325 134.263C88.689 134.636 88.988 135.095 89.222 135.641C89.456 136.187 89.612 136.807 89.69 137.5H87.714C87.662 136.885 87.5277 136.33 87.311 135.836C87.0943 135.333 86.7693 134.935 86.336 134.64C86.076 134.458 85.7683 134.315 85.413 134.211C85.0663 134.107 84.672 134.055 84.23 134.055V137.5H82.397ZM84.23 132.573H85.738C86.2147 132.573 86.5787 132.443 86.83 132.183C87.0813 131.923 87.207 131.602 87.207 131.221C87.207 130.831 87.077 130.515 86.817 130.272C86.5657 130.029 86.206 129.908 85.738 129.908H84.23V132.573ZM94.1441 137.591C93.5895 137.591 93.0738 137.504 92.5971 137.331C92.1291 137.158 91.7175 136.911 91.3621 136.59C91.0155 136.269 90.7425 135.888 90.5431 135.446C90.3525 134.995 90.2571 134.497 90.2571 133.951C90.2571 133.388 90.3568 132.876 90.5561 132.417C90.7555 131.958 91.0328 131.563 91.3881 131.234C91.7435 130.905 92.1508 130.653 92.6101 130.48C93.0695 130.298 93.5548 130.207 94.0661 130.207C94.4995 130.207 94.9068 130.268 95.2881 130.389C95.6695 130.502 96.0031 130.666 96.2891 130.883C96.5838 131.091 96.8091 131.342 96.9651 131.637C97.1298 131.932 97.2121 132.252 97.2121 132.599C97.2121 133.05 97.0821 133.427 96.8221 133.73C96.5621 134.033 96.2155 134.276 95.7821 134.458C95.3575 134.631 94.8895 134.753 94.3781 134.822C93.8668 134.883 93.3641 134.904 92.8701 134.887C92.7921 134.878 92.7011 134.874 92.5971 134.874C92.4931 134.874 92.3978 134.874 92.3111 134.874C92.2331 134.865 92.1811 134.861 92.1551 134.861C92.2071 135.095 92.3285 135.312 92.5191 135.511C92.7185 135.71 92.9611 135.866 93.2471 135.979C93.5331 136.083 93.8408 136.135 94.1701 136.135C94.4561 136.135 94.7335 136.087 95.0021 135.992C95.2708 135.897 95.5178 135.767 95.7431 135.602C95.9771 135.429 96.1678 135.242 96.3151 135.043L97.5761 135.992C97.2988 136.356 96.9781 136.659 96.6141 136.902C96.2501 137.136 95.8601 137.309 95.4441 137.422C95.0281 137.535 94.5948 137.591 94.1441 137.591ZM92.9351 133.574C93.2211 133.574 93.5071 133.561 93.7931 133.535C94.0878 133.509 94.3565 133.461 94.5991 133.392C94.8505 133.314 95.0498 133.21 95.1971 133.08C95.3531 132.941 95.4311 132.768 95.4311 132.56C95.4311 132.387 95.3705 132.235 95.2491 132.105C95.1365 131.966 94.9805 131.858 94.7811 131.78C94.5905 131.693 94.3695 131.65 94.1181 131.65C93.7195 131.65 93.3641 131.741 93.0521 131.923C92.7488 132.105 92.5105 132.343 92.3371 132.638C92.1638 132.924 92.0685 133.223 92.0511 133.535C92.1551 133.544 92.2851 133.552 92.4411 133.561C92.5971 133.57 92.7618 133.574 92.9351 133.574ZM101.543 137.591C100.91 137.591 100.351 137.435 99.866 137.123C99.3806 136.802 98.9993 136.365 98.722 135.81C98.4446 135.247 98.306 134.61 98.306 133.899C98.306 133.18 98.4446 132.543 98.722 131.988C98.9993 131.433 99.3806 131 99.866 130.688C100.351 130.367 100.91 130.207 101.543 130.207C102.115 130.207 102.613 130.354 103.038 130.649C103.463 130.944 103.77 131.351 103.961 131.871V130.298H105.807V137.5H104.923C104.628 137.5 104.394 137.413 104.221 137.24C104.048 137.058 103.961 136.82 103.961 136.525V135.914C103.77 136.443 103.463 136.854 103.038 137.149C102.613 137.444 102.115 137.591 101.543 137.591ZM102.063 135.992C102.401 135.992 102.713 135.91 102.999 135.745C103.285 135.58 103.515 135.342 103.688 135.03C103.87 134.718 103.961 134.341 103.961 133.899C103.961 133.448 103.87 133.067 103.688 132.755C103.515 132.443 103.285 132.209 102.999 132.053C102.713 131.888 102.401 131.806 102.063 131.806C101.742 131.806 101.435 131.888 101.14 132.053C100.854 132.209 100.62 132.443 100.438 132.755C100.265 133.067 100.178 133.448 100.178 133.899C100.178 134.341 100.265 134.718 100.438 135.03C100.62 135.342 100.854 135.58 101.14 135.745C101.435 135.91 101.742 135.992 102.063 135.992ZM110.354 137.591C109.721 137.591 109.162 137.435 108.677 137.123C108.191 136.802 107.81 136.365 107.533 135.81C107.255 135.247 107.116 134.61 107.116 133.899C107.116 133.18 107.255 132.543 107.533 131.988C107.81 131.433 108.191 131 108.677 130.688C109.162 130.367 109.721 130.207 110.354 130.207C110.926 130.207 111.424 130.354 111.849 130.649C112.273 130.944 112.581 131.351 112.772 131.871V127.88H114.618V137.5H113.734C113.439 137.5 113.205 137.413 113.032 137.24C112.858 137.058 112.772 136.82 112.772 136.525V135.914C112.581 136.443 112.273 136.854 111.849 137.149C111.424 137.444 110.926 137.591 110.354 137.591ZM110.874 135.992C111.212 135.992 111.524 135.91 111.81 135.745C112.096 135.58 112.325 135.342 112.499 135.03C112.681 134.718 112.772 134.341 112.772 133.899C112.772 133.448 112.681 133.067 112.499 132.755C112.325 132.443 112.096 132.209 111.81 132.053C111.524 131.888 111.212 131.806 110.874 131.806C110.553 131.806 110.245 131.888 109.951 132.053C109.665 132.209 109.431 132.443 109.249 132.755C109.075 133.067 108.989 133.448 108.989 133.899C108.989 134.341 109.075 134.718 109.249 135.03C109.431 135.342 109.665 135.58 109.951 135.745C110.245 135.91 110.553 135.992 110.874 135.992ZM125.928 131.572C125.841 131.321 125.724 131.1 125.577 130.909C125.438 130.71 125.269 130.541 125.07 130.402C124.879 130.263 124.663 130.159 124.42 130.09C124.186 130.012 123.926 129.973 123.64 129.973C123.111 129.973 122.639 130.099 122.223 130.35C121.816 130.601 121.495 130.948 121.261 131.39C121.036 131.832 120.923 132.352 120.923 132.95C120.923 133.565 121.036 134.098 121.261 134.549C121.495 135 121.824 135.351 122.249 135.602C122.682 135.853 123.189 135.979 123.77 135.979C124.108 135.979 124.42 135.914 124.706 135.784C124.992 135.654 125.243 135.485 125.46 135.277C125.685 135.069 125.863 134.835 125.993 134.575C126.132 134.315 126.227 134.059 126.279 133.808H123.315V132.365H128.125V137.5H126.513V135.199L126.643 135.134C126.626 135.281 126.574 135.459 126.487 135.667C126.4 135.875 126.275 136.092 126.11 136.317C125.945 136.534 125.737 136.742 125.486 136.941C125.243 137.132 124.957 137.288 124.628 137.409C124.299 137.53 123.926 137.591 123.51 137.591C122.903 137.591 122.331 137.478 121.794 137.253C121.257 137.028 120.78 136.711 120.364 136.304C119.957 135.888 119.632 135.398 119.389 134.835C119.155 134.263 119.038 133.635 119.038 132.95C119.038 132.265 119.155 131.641 119.389 131.078C119.632 130.515 119.961 130.029 120.377 129.622C120.802 129.206 121.291 128.89 121.846 128.673C122.409 128.448 123.016 128.335 123.666 128.335C124.637 128.335 125.482 128.556 126.201 128.998C126.92 129.44 127.432 130.081 127.735 130.922L125.928 131.572ZM134.45 136.525V130.298H136.296V137.5H135.425C135.13 137.5 134.892 137.413 134.71 137.24C134.537 137.058 134.45 136.82 134.45 136.525ZM132.214 137.591C131.642 137.591 131.144 137.47 130.719 137.227C130.303 136.984 129.982 136.633 129.757 136.174C129.532 135.715 129.419 135.16 129.419 134.51V130.298H131.239V134.198C131.239 134.779 131.386 135.229 131.681 135.55C131.976 135.862 132.361 136.018 132.838 136.018C133.167 136.018 133.453 135.936 133.696 135.771C133.939 135.598 134.125 135.364 134.255 135.069C134.385 134.774 134.45 134.441 134.45 134.068L134.736 134.445C134.71 135.164 134.576 135.758 134.333 136.226C134.099 136.694 133.796 137.041 133.423 137.266C133.059 137.483 132.656 137.591 132.214 137.591ZM138.066 137.5V130.298H139.912V137.5H138.066ZM139.002 129.427C138.638 129.427 138.334 129.319 138.092 129.102C137.849 128.877 137.728 128.599 137.728 128.27C137.728 127.941 137.849 127.663 138.092 127.438C138.334 127.213 138.638 127.1 139.002 127.1C139.366 127.1 139.669 127.213 139.912 127.438C140.154 127.663 140.276 127.941 140.276 128.27C140.276 128.599 140.154 128.877 139.912 129.102C139.669 129.319 139.366 129.427 139.002 129.427ZM144.491 137.591C143.859 137.591 143.3 137.435 142.814 137.123C142.329 136.802 141.948 136.365 141.67 135.81C141.393 135.247 141.254 134.61 141.254 133.899C141.254 133.18 141.393 132.543 141.67 131.988C141.948 131.433 142.329 131 142.814 130.688C143.3 130.367 143.859 130.207 144.491 130.207C145.063 130.207 145.562 130.354 145.986 130.649C146.411 130.944 146.719 131.351 146.909 131.871V127.88H148.755V137.5H147.871C147.577 137.5 147.343 137.413 147.169 137.24C146.996 137.058 146.909 136.82 146.909 136.525V135.914C146.719 136.443 146.411 136.854 145.986 137.149C145.562 137.444 145.063 137.591 144.491 137.591ZM145.011 135.992C145.349 135.992 145.661 135.91 145.947 135.745C146.233 135.58 146.463 135.342 146.636 135.03C146.818 134.718 146.909 134.341 146.909 133.899C146.909 133.448 146.818 133.067 146.636 132.755C146.463 132.443 146.233 132.209 145.947 132.053C145.661 131.888 145.349 131.806 145.011 131.806C144.691 131.806 144.383 131.888 144.088 132.053C143.802 132.209 143.568 132.443 143.386 132.755C143.213 133.067 143.126 133.448 143.126 133.899C143.126 134.341 143.213 134.718 143.386 135.03C143.568 135.342 143.802 135.58 144.088 135.745C144.383 135.91 144.691 135.992 145.011 135.992ZM153.952 137.591C153.397 137.591 152.881 137.504 152.405 137.331C151.937 137.158 151.525 136.911 151.17 136.59C150.823 136.269 150.55 135.888 150.351 135.446C150.16 134.995 150.065 134.497 150.065 133.951C150.065 133.388 150.164 132.876 150.364 132.417C150.563 131.958 150.84 131.563 151.196 131.234C151.551 130.905 151.958 130.653 152.418 130.48C152.877 130.298 153.362 130.207 153.874 130.207C154.307 130.207 154.714 130.268 155.096 130.389C155.477 130.502 155.811 130.666 156.097 130.883C156.391 131.091 156.617 131.342 156.773 131.637C156.937 131.932 157.02 132.252 157.02 132.599C157.02 133.05 156.89 133.427 156.63 133.73C156.37 134.033 156.023 134.276 155.59 134.458C155.165 134.631 154.697 134.753 154.186 134.822C153.674 134.883 153.172 134.904 152.678 134.887C152.6 134.878 152.509 134.874 152.405 134.874C152.301 134.874 152.205 134.874 152.119 134.874C152.041 134.865 151.989 134.861 151.963 134.861C152.015 135.095 152.136 135.312 152.327 135.511C152.526 135.71 152.769 135.866 153.055 135.979C153.341 136.083 153.648 136.135 153.978 136.135C154.264 136.135 154.541 136.087 154.81 135.992C155.078 135.897 155.325 135.767 155.551 135.602C155.785 135.429 155.975 135.242 156.123 135.043L157.384 135.992C157.106 136.356 156.786 136.659 156.422 136.902C156.058 137.136 155.668 137.309 155.252 137.422C154.836 137.535 154.402 137.591 153.952 137.591ZM152.743 133.574C153.029 133.574 153.315 133.561 153.601 133.535C153.895 133.509 154.164 133.461 154.407 133.392C154.658 133.314 154.857 133.21 155.005 133.08C155.161 132.941 155.239 132.768 155.239 132.56C155.239 132.387 155.178 132.235 155.057 132.105C154.944 131.966 154.788 131.858 154.589 131.78C154.398 131.693 154.177 131.65 153.926 131.65C153.527 131.65 153.172 131.741 152.86 131.923C152.556 132.105 152.318 132.343 152.145 132.638C151.971 132.924 151.876 133.223 151.859 133.535C151.963 133.544 152.093 133.552 152.249 133.561C152.405 133.57 152.569 133.574 152.743 133.574Z" fill="#3D5236"/>
<path d="M298.483 132.023C292.078 94.3401 333.764 67.2037 365.63 88.3114L370.405 91.4748C371.753 92.3662 373.391 92.7123 374.984 92.4429L380.63 91.4824C418.313 85.0773 445.449 126.763 424.341 158.629L421.178 163.404C420.287 164.752 419.94 166.39 420.21 167.983L421.17 173.629C427.575 211.312 385.889 238.448 354.023 217.34L349.249 214.177C347.901 213.286 346.263 212.939 344.67 213.209L339.023 214.169C301.341 220.574 274.205 178.888 295.312 147.022L298.476 142.248C299.367 140.9 299.713 139.262 299.444 137.669L298.483 132.023Z" fill="#FFFFE9" fill-opacity="0.6"/>
<path d="M247.71 -1.35253C242.823 -30.1093 274.634 -50.8178 298.952 -34.7097L302.595 -32.2957C303.624 -31.6154 304.875 -31.351 306.091 -31.5567L310.399 -32.2897C339.156 -37.1772 359.864 -5.36603 343.757 18.9521L341.343 22.5953C340.662 23.6241 340.398 24.8749 340.604 26.0909L341.337 30.3995C346.224 59.1561 314.413 79.8644 290.095 63.7566L286.452 61.3426C285.423 60.6624 284.172 60.398 282.956 60.6036L278.647 61.3366C249.891 66.2244 229.182 34.4131 245.29 10.0949L247.704 6.45159C248.385 5.42286 248.649 4.17205 248.443 2.95602L247.71 -1.35253Z" fill="#FFFFE9" fill-opacity="0.8"/>
</g>
</g>
<defs>
<filter id="filter0_d_1015_6821" x="-10" y="0" width="390" height="195" filterUnits="userSpaceOnUse" color-interpolation-filters="sRGB">
<feFlood flood-opacity="0" result="BackgroundImageFix"/>
<feColorMatrix in="SourceAlpha" type="matrix" values="0 0 0 0 0 0 0 0 0 0 0 0 0 0 0 0 0 0 127 0" result="hardAlpha"/>
<feOffset dy="4"/>
<feGaussianBlur stdDeviation="5"/>
<feComposite in2="hardAlpha" operator="out"/>
<feColorMatrix type="matrix" values="0 0 0 0 0.360784 0 0 0 0 0.470588 0 0 0 0 0.321569 0 0 0 0.04 0"/>
<feBlend mode="normal" in2="BackgroundImageFix" result="effect1_dropShadow_1015_6821"/>
<feBlend mode="normal" in="SourceGraphic" in2="effect1_dropShadow_1015_6821" result="shape"/>
</filter>
<clipPath id="clip0_1015_6821">
<rect y="6" width="370" height="175" rx="12" fill="white"/>
</clipPath>
</defs>
</svg>
