<svg width="37" height="37" viewBox="0 0 37 37" fill="none" xmlns="http://www.w3.org/2000/svg">
<path d="M12.0585 0.0252388C13.5747 -0.0891287 15.1707 0.193071 16.5952 0.711938C17.1655 0.919695 17.8411 1.315 18.425 1.32633C19.1097 1.33963 19.8316 0.865739 20.5301 0.640867C21.3844 0.365835 22.2362 0.147181 23.1327 0.0511245C23.5824 0.00922771 24.0514 0.0526937 24.499 0.0344187C30.0147 -0.190752 35.1362 4.0028 36.5327 9.26489C36.6687 9.77736 36.8815 10.5092 36.9334 11.0411C36.9615 11.9886 37.0397 13.067 36.9311 14.0111C36.7563 15.3155 36.2712 16.5211 35.7959 17.7384C35.3755 18.77 35.9387 19.7077 36.2898 20.673C36.9315 22.4374 37.1099 24.1005 36.9387 25.9966C36.7393 28.2044 35.4984 30.8239 34.0598 32.491C32.1581 34.6953 29.6627 36.2712 26.7954 36.7954C26.0336 36.9356 25.6678 36.9385 24.9337 36.9962C23.4054 36.991 22.4269 36.895 20.9262 36.4553C20.0923 36.2105 19.2924 35.6831 18.4527 35.6719C17.7684 35.6808 17.1568 36.0828 16.5184 36.3039C7.26119 39.5127 -1.97673 31.1173 0.376966 21.5815C0.478494 21.1718 0.600976 20.7677 0.743887 20.3706C0.908797 19.9184 1.36672 18.972 1.33789 18.5364C1.23577 17.5183 0.689886 16.5731 0.414393 15.5762C-0.573923 12 0.240037 7.87491 2.4884 4.93155C2.85251 4.45489 3.55922 3.65162 4.00652 3.22462C6.16931 1.16001 9.09628 0.0927263 12.0585 0.0252388Z" fill="#FDF2EC"/>
<path d="M24.9527 9.32227H12.9062C11.8019 9.32227 10.8984 10.2258 10.8984 11.33V27.392C10.8984 28.4963 11.8019 29.3998 12.9062 29.3998H24.9527C26.057 29.3998 26.9605 28.4963 26.9605 27.392V11.33C26.9605 10.2258 26.057 9.32227 24.9527 9.32227ZM15.9178 11.33H17.9256V16.3494L16.9217 15.5965L15.9178 16.3494V11.33ZM24.9527 27.392H12.9062V11.33H13.9101V20.3649L16.9217 18.1062L19.9333 20.3649V11.33H24.9527V27.392Z" fill="#C97850"/>
</svg>
