<svg width="37" height="37" viewBox="0 0 37 37" fill="none" xmlns="http://www.w3.org/2000/svg">
<path d="M12.0585 0.0252388C13.5747 -0.0891287 15.1707 0.193071 16.5952 0.711938C17.1655 0.919695 17.8411 1.315 18.425 1.32633C19.1097 1.33963 19.8316 0.865739 20.5301 0.640867C21.3844 0.365835 22.2362 0.147181 23.1327 0.0511245C23.5824 0.00922771 24.0514 0.0526937 24.499 0.0344187C30.0147 -0.190752 35.1362 4.0028 36.5327 9.26489C36.6687 9.77736 36.8815 10.5092 36.9334 11.0411C36.9615 11.9886 37.0397 13.067 36.9311 14.0111C36.7563 15.3155 36.2712 16.5211 35.7959 17.7384C35.3755 18.77 35.9387 19.7077 36.2898 20.673C36.9315 22.4374 37.1099 24.1005 36.9387 25.9966C36.7393 28.2044 35.4984 30.8239 34.0598 32.491C32.1581 34.6953 29.6627 36.2712 26.7954 36.7954C26.0336 36.9356 25.6678 36.9385 24.9337 36.9962C23.4054 36.991 22.4269 36.895 20.9262 36.4553C20.0923 36.2105 19.2924 35.6831 18.4527 35.6719C17.7684 35.6808 17.1568 36.0828 16.5184 36.3039C7.26119 39.5127 -1.97673 31.1173 0.376966 21.5815C0.478494 21.1718 0.600976 20.7677 0.743887 20.3706C0.908797 19.9184 1.36672 18.972 1.33789 18.5364C1.23577 17.5183 0.689886 16.5731 0.414393 15.5762C-0.573923 12 0.240037 7.87491 2.4884 4.93155C2.85251 4.45489 3.55922 3.65162 4.00652 3.22462C6.16931 1.16001 9.09628 0.0927263 12.0585 0.0252388Z" fill="#FDF2EC"/>
<path d="M17.0265 17.3652C17.8393 17.3652 18.4981 16.6911 18.4981 15.8594C18.4981 15.0278 17.8393 14.3536 17.0265 14.3536C16.2138 14.3536 15.5549 15.0278 15.5549 15.8594C15.5549 16.6911 16.2138 17.3652 17.0265 17.3652Z" fill="#C97850"/>
<path d="M15.0644 22.3846C15.8771 22.3846 16.536 21.7105 16.536 20.8788C16.536 20.0472 15.8771 19.373 15.0644 19.373C14.2517 19.373 13.5928 20.0472 13.5928 20.8788C13.5928 21.7105 14.2517 22.3846 15.0644 22.3846Z" fill="#C97850"/>
<path d="M21.4413 23.3885C21.9831 23.3885 22.4223 22.9391 22.4223 22.3846C22.4223 21.8302 21.9831 21.3808 21.4413 21.3808C20.8995 21.3808 20.4602 21.8302 20.4602 22.3846C20.4602 22.9391 20.8995 23.3885 21.4413 23.3885Z" fill="#C97850"/>
<path d="M28.2597 18.3591C26.5036 18.329 24.6297 16.4015 25.6304 14.1227C22.7167 15.1266 19.9599 12.5266 20.5387 9.54506C13.7007 8.06936 8.6875 13.7613 8.6875 19.373C8.6875 24.9144 13.0827 29.4118 18.4981 29.4118C24.2766 29.4118 28.8385 24.3121 28.2597 18.3591ZM18.4981 27.404C14.1716 27.404 10.6496 23.8001 10.6496 19.373C10.6496 16.0502 13.3279 11.1613 18.5766 11.3219C18.9886 13.8718 20.9704 15.8996 23.4721 16.2811C23.5408 16.6425 23.9822 18.8409 26.3368 19.9251C26.0523 24.2518 22.4812 27.404 18.4981 27.404Z" fill="#C97850"/>
</svg>
