<svg width="37" height="37" viewBox="0 0 37 37" fill="none" xmlns="http://www.w3.org/2000/svg">
<path d="M12.0585 0.0252388C13.5747 -0.0891287 15.1707 0.193071 16.5952 0.711938C17.1655 0.919695 17.8411 1.315 18.425 1.32633C19.1097 1.33963 19.8316 0.865739 20.5301 0.640867C21.3844 0.365835 22.2362 0.147181 23.1327 0.0511245C23.5824 0.00922771 24.0514 0.0526937 24.499 0.0344187C30.0147 -0.190752 35.1362 4.0028 36.5327 9.26489C36.6687 9.77736 36.8815 10.5092 36.9334 11.0411C36.9615 11.9886 37.0397 13.067 36.9311 14.0111C36.7563 15.3155 36.2712 16.5211 35.7959 17.7384C35.3755 18.77 35.9387 19.7077 36.2898 20.673C36.9315 22.4374 37.1099 24.1005 36.9387 25.9966C36.7393 28.2044 35.4984 30.8239 34.0598 32.491C32.1581 34.6953 29.6627 36.2712 26.7954 36.7954C26.0336 36.9356 25.6678 36.9385 24.9337 36.9962C23.4054 36.991 22.4269 36.895 20.9262 36.4553C20.0923 36.2105 19.2924 35.6831 18.4527 35.6719C17.7684 35.6808 17.1568 36.0828 16.5184 36.3039C7.26119 39.5127 -1.97673 31.1173 0.376966 21.5815C0.478494 21.1718 0.600976 20.7677 0.743887 20.3706C0.908797 19.9184 1.36672 18.972 1.33789 18.5364C1.23577 17.5183 0.689886 16.5731 0.414393 15.5762C-0.573923 12 0.240037 7.87491 2.4884 4.93155C2.85251 4.45489 3.55922 3.65162 4.00652 3.22462C6.16931 1.16001 9.09628 0.0927263 12.0585 0.0252388Z" fill="#FDF2EC"/>
<path d="M14.7128 20.4943L17.5538 17.6533L10.5066 10.6161C8.94052 12.1822 8.94052 14.722 10.5066 16.2981L14.7128 20.4943ZM21.5191 18.6772C23.055 19.39 25.2133 18.8881 26.8095 17.2919C28.7269 15.3745 29.0983 12.6239 27.6227 11.1482C26.157 9.68252 23.4064 10.0439 21.4789 11.9613C19.8828 13.5575 19.3808 15.7158 20.0936 17.2517L10.2958 27.0496L11.7112 28.465L18.6279 21.5684L25.5346 28.4751L26.9501 27.0596L20.0434 20.1529L21.5191 18.6772Z" fill="#C97850"/>
</svg>
