<svg width="20" height="24" viewBox="0 0 20 24" fill="none" xmlns="http://www.w3.org/2000/svg">
<path d="M12.4013 0.0123828L12.1866 0.00845536C11.0575 -0.00708269 9.90003 0.002907 8.77067 0.00625446C7.99141 0.00294653 7.21201 0.0131471 6.43301 0.0368429C4.73964 0.0925901 2.82443 0.224881 1.54468 1.47334C1.16928 1.83966 0.867563 2.27449 0.655876 2.75431C0.0285873 4.15962 0.0155392 6.32938 0.00670815 7.8595C-0.00515556 9.90877 0.00235748 11.9745 0.00222588 14.025L0.00169754 16.0858C0.00169754 16.4392 -0.00647354 16.8146 0.0138264 17.1662C0.0246334 17.2831 0.0992393 17.4207 0.168175 17.5108C0.283115 17.6674 0.531973 17.8168 0.732853 17.8263C1.31677 17.8537 1.74674 17.956 2.17895 18.4033C2.52983 18.7692 2.71806 19.2611 2.70105 19.7677C2.67627 20.6006 2.10777 21.3186 1.30267 21.5339C0.916597 21.6372 0.557148 21.5121 0.246866 21.8233C0.0744572 21.9931 0.0111885 22.1585 0.00156593 22.3987C-0.0137234 22.776 0.272173 23.1331 0.640322 23.2072C0.805479 23.2404 1.03378 23.2272 1.21014 23.226L1.94841 23.2234L4.89531 23.2238H13.2441L15.4792 23.2242C15.9783 23.2246 16.658 23.2503 17.1354 23.1595C17.7996 23.0322 18.4132 22.7167 18.9031 22.2505C19.6861 21.5021 20.0476 20.4819 19.9961 19.4111C19.9899 19.2833 19.9912 19.1463 19.9908 19.0184L19.9903 17.3221L19.9905 11.5027L19.9864 7.80722C19.9759 6.4971 19.9628 5.29055 19.7213 3.99746C18.9978 0.123455 15.6198 0.059076 12.4013 0.0123828ZM18.3729 16.7479C17.3814 16.1646 16.8214 16.1991 15.7334 16.1991L13.9224 16.1995L7.68969 16.1997L1.62574 16.2004C1.60386 14.1154 1.62284 11.9933 1.62324 9.90532C1.61717 8.89709 1.62429 7.88883 1.64446 6.88079C1.67675 5.59692 1.69085 3.63426 2.64253 2.66898C2.88532 2.42559 3.17504 2.23394 3.49402 2.1056C4.58291 1.65648 6.62453 1.63407 7.82414 1.63998C9.46782 1.64806 11.1669 1.61607 12.8069 1.64612C13.627 1.65662 14.3704 1.6878 15.1826 1.7864C16.7939 1.98198 17.8148 2.6146 18.1275 4.29402C18.297 5.20432 18.335 6.02785 18.3527 6.95549C18.3633 7.50824 18.3695 8.06108 18.3713 8.61394L18.372 14.1244L18.3717 15.8401C18.3715 16.1125 18.3602 16.4833 18.3729 16.7479ZM5.14575 21.5968C4.68942 21.5972 4.22755 21.5941 3.77175 21.5999C4.2323 20.9676 4.41591 19.9156 4.27975 19.1514C4.17984 18.5914 4.04974 18.296 3.77768 17.818C4.08783 17.8443 4.70576 17.8271 5.03226 17.8273H7.43042L13.3872 17.8269C14.3947 17.827 15.46 17.8091 16.4638 17.8298C17.0559 17.8656 17.4882 18.0002 17.8962 18.4602C18.5849 19.2369 18.5024 20.4524 17.7206 21.1323C17.4532 21.3658 17.125 21.5184 16.7741 21.5723C16.4858 21.6153 15.8193 21.5974 15.4959 21.5971L13.1896 21.5968H5.14575Z" fill="#969696"/>
<path d="M10.2107 3.79585C10.0814 3.78603 9.92055 3.78763 9.79296 3.79575C9.10847 3.84284 8.4618 4.12687 7.96422 4.59902C7.82463 4.73035 7.73104 4.85102 7.60622 4.99237C6.83578 4.82729 6.22524 4.81251 5.48565 5.16592C4.76846 5.50962 4.21802 6.12487 3.95572 6.87551C3.69394 7.62264 3.741 8.44335 4.08674 9.15561C4.48191 9.96792 5.1059 10.4453 5.94184 10.7373C6.00617 11.6493 5.7722 12.764 6.50797 13.4938C7.08675 14.068 7.93548 14.0498 8.69642 14.0506H9.75987L11.0779 14.0501C11.894 14.049 12.8521 14.1094 13.4843 13.5032C14.1443 12.8703 14.0397 11.7525 14.0527 10.8833C14.7467 10.6947 15.3442 10.2518 15.7262 9.64259C16.1721 8.92193 16.3202 7.9726 16.121 7.14895C15.9359 6.38425 15.4559 5.72374 14.7856 5.31153C14.0114 4.84161 13.2402 4.78865 12.3805 4.99919C12.3384 4.92959 12.311 4.8968 12.2585 4.83456C11.7427 4.22354 11.0108 3.85323 10.2107 3.79585ZM12.3553 12.3417C12.0033 12.4471 11.2113 12.4224 10.8144 12.4225L9.20627 12.4221C8.86093 12.4214 7.93034 12.4454 7.64892 12.3445C7.56008 12.0558 7.57432 11.6954 7.57129 11.39C7.56799 11.0752 7.56707 10.7604 7.56865 10.4456C7.56918 10.2439 7.58104 10.0254 7.53583 9.82838C7.48812 9.61972 7.32586 9.42177 7.13882 9.32081C6.94651 9.21698 6.72111 9.2347 6.51179 9.2027C6.03859 9.11153 5.6284 8.74117 5.47866 8.28637C5.36425 7.93907 5.39364 7.56045 5.56012 7.23489C5.72159 6.92124 6.00828 6.67048 6.34624 6.56503C6.59299 6.48805 6.78227 6.50774 7.03429 6.52479C7.02994 6.84462 7.01307 7.08569 7.25652 7.33654C7.41193 7.49665 7.60595 7.58339 7.82977 7.58445C8.04686 7.58617 8.25578 7.50184 8.41079 7.34991C8.71343 7.04863 8.60429 6.74024 8.70921 6.37509C8.87701 5.80141 9.40596 5.40927 10.0037 5.41537C10.0269 5.41538 10.0285 5.41579 10.045 5.41692C10.4728 5.45429 10.735 5.56104 11.0247 5.88706C11.2228 6.10304 11.2606 6.403 11.4584 6.61628C11.6627 6.83646 12.0176 6.93297 12.2983 6.81873C12.5676 6.70915 12.7167 6.56352 13.0199 6.51918C13.9568 6.38222 14.6917 7.14783 14.5784 8.07382C14.4999 8.7865 14.0934 9.3103 13.3451 9.35634C13.2465 9.36046 13.1309 9.37359 13.0347 9.3939C12.7226 9.46666 12.4499 9.77372 12.4357 10.0995C12.4124 10.6319 12.4403 11.1788 12.4232 11.7127C12.417 11.9063 12.4121 12.1582 12.3553 12.3417Z" fill="#969696"/>
</svg>
