<svg width="28" height="25" viewBox="0 0 28 25" fill="none" xmlns="http://www.w3.org/2000/svg">
<path d="M21.7565 11.1879C21.8018 10.9325 21.8366 10.722 21.9771 10.5013C22.136 10.2516 22.3853 10.079 22.6687 10.0225C22.9675 9.96102 23.2778 10.0266 23.5296 10.2046C23.9322 10.4917 24.058 10.9324 23.9765 11.4186C23.846 12.1985 23.7073 12.9766 23.5704 13.7553L22.7861 18.2225L22.1165 22.0429C22.0091 22.6572 21.8896 23.475 21.7568 24.0664C21.7224 24.2233 21.6578 24.3715 21.5669 24.502C21.2052 25.0221 20.7388 24.9856 20.1881 24.9861L19.1543 24.9865L15.632 24.9858L10.0442 24.9854L8.3351 24.9867C7.62219 24.9888 6.74218 25.1394 6.34769 24.3724C6.23581 24.1548 6.19997 23.8494 6.15707 23.6059L5.99989 22.7101L5.4651 19.6558L4.49643 14.133C4.33922 13.237 4.18008 12.3415 4.02395 11.4452C3.94137 10.9711 4.06942 10.5048 4.45339 10.212C4.63569 10.073 4.80914 10.0341 5.02763 10.0036C5.30478 9.98958 5.57765 10.0784 5.79725 10.2542C6.18775 10.5657 6.21291 11.0183 6.29476 11.4853L6.46724 12.4699L7.03085 15.6877L7.8334 20.262C7.96317 20.9998 8.15853 21.9435 8.24862 22.6626C8.982 22.7002 9.91564 22.675 10.6619 22.6732C10.6783 21.5165 10.6537 20.3562 10.6676 19.1991C10.6786 18.2857 11.0075 17.4382 11.6254 16.783C12.2496 16.1315 13.0983 15.7642 13.984 15.7626C14.8727 15.757 15.7265 16.1199 16.3555 16.7704C17.4399 17.8911 17.3391 19.0163 17.3384 20.4439L17.3374 22.6712C18.1366 22.6761 18.936 22.6765 19.7353 22.6721C19.8329 22.2662 19.9172 21.6838 19.9915 21.2599L20.4577 18.6043L21.7565 11.1879ZM12.8894 22.6712L14.1833 22.6741C14.4901 22.6739 14.8036 22.6776 15.1099 22.6732L15.1144 20.3625C15.1144 20.1145 15.1134 19.8633 15.1142 19.6157C15.1158 19.1525 15.1241 18.7638 14.7892 18.4116C14.5885 18.1989 14.314 18.0784 14.0267 18.0771C13.9765 18.0766 13.9053 18.0802 13.8561 18.0881C13.3842 18.1486 13.0161 18.4805 12.9206 18.9686C12.8884 19.1328 12.8905 19.2989 12.8892 19.4655C12.8808 20.533 12.9008 21.6039 12.8894 22.6712Z" fill="#969696"/>
<path d="M13.9089 0.00137331C14.2526 -0.0109846 14.4442 0.0596221 14.7287 0.230984C15.7183 0.827444 16.7067 1.42729 17.6949 2.02609L23.3212 5.43505L26.1613 7.15561L26.9779 7.64848C27.4173 7.9118 27.8452 8.10894 27.9698 8.63168C28.0403 8.92025 27.9862 9.22368 27.8197 9.47393C27.532 9.90059 26.8835 10.1456 26.3856 9.9059C25.9618 9.70189 25.5206 9.40504 25.1151 9.15946L22.6078 7.63866L14.0663 2.4654C14.0218 2.45166 13.9839 2.43972 13.9419 2.46362C13.6006 2.65817 13.2522 2.8757 12.9177 3.07915L10.8897 4.30782L4.06831 8.43911L2.56103 9.35297C2.27247 9.52824 1.70252 9.9147 1.39292 9.97236C1.0845 10.0308 0.764358 9.96785 0.505549 9.79779C-0.0780161 9.41809 -0.147336 8.70187 0.250896 8.17536C0.306013 8.1025 0.501538 7.96274 0.580776 7.91423C1.37376 7.42877 2.17071 6.94889 2.96623 6.46716L7.59834 3.66079L11.4587 1.32216C12.1141 0.925144 12.7733 0.521759 13.433 0.13127C13.5696 0.0504232 13.752 0.0221144 13.9089 0.00137331Z" fill="#969696"/>
</svg>
