<svg width="21" height="23" viewBox="0 0 21 23" fill="none" xmlns="http://www.w3.org/2000/svg">
<path d="M0.806929 0.0122501C1.40335 -0.0266119 1.95405 0.0144991 2.49852 0.319569C3.0646 0.638274 3.51066 1.17939 3.75457 1.84331C3.86904 2.15433 3.95697 2.54548 4.04836 2.8697C4.21649 3.46615 4.36405 4.08751 4.54273 4.67947C5.52691 3.9436 6.0167 4.00377 7.13479 4.00465L8.59248 4.00536L13.5709 4.00527L16.7472 4.00502L17.7415 4.00432C17.9623 4.00429 18.2184 3.99785 18.4366 4.02028C18.8737 4.06416 19.2963 4.22035 19.6728 4.47714C20.2815 4.89525 20.7587 5.55381 20.929 6.34873C21.0059 6.71093 21.0205 7.08667 20.972 7.45521C20.9263 7.79959 20.7966 8.30488 20.7165 8.65713L20.2559 10.6868L19.6572 13.326C19.5606 13.7531 19.4418 14.3504 19.3259 14.7596C19.2549 15.013 19.1568 15.2554 19.0337 15.4813C18.6361 16.211 18.0004 16.7307 17.2667 16.9261C16.8907 17.0253 16.5247 17.0068 16.1413 17.0067L15.1456 17.0062H11.5075L9.01185 17.0064C7.7508 17.0067 7.25798 17.1294 6.13286 16.3342C5.94495 16.4923 5.76102 16.669 5.58222 16.841C5.23721 17.1726 4.85875 17.4209 4.85644 17.9931C4.85511 18.2584 4.94586 18.5135 5.10891 18.7027C5.41425 19.053 5.80579 19.0026 6.20423 19.0016L7.08068 18.9996L10.2119 19.0001H15.6983L17.4551 18.9996C17.7769 18.9993 18.1051 18.9952 18.4268 19.0046C18.6735 19.0118 18.9052 19.1296 19.07 19.3437C19.2248 19.5449 19.3017 19.809 19.2829 20.0758C19.2336 20.7962 18.6562 21.0719 18.1134 21.0071C17.9346 20.9857 17.73 21.0192 17.5387 20.9974C17.5016 21.5383 17.3974 21.95 17.0627 22.3597C16.7476 22.7501 16.3084 22.9803 15.8434 22.9987C15.367 23.0181 14.9041 22.8158 14.5612 22.4383C14.2074 22.0494 14.0399 21.5651 14.0291 21.0102C13.7333 20.9978 13.4053 21.005 13.1068 21.005L11.529 21.0056C11.2583 21.0061 10.7689 21.0256 10.5241 20.9972C10.487 21.5383 10.383 21.9499 10.0482 22.3597C9.73306 22.7501 9.29385 22.9803 8.82877 22.9987C8.35237 23.0181 7.88954 22.8158 7.54661 22.4383C7.1929 22.0494 7.02524 21.5651 7.01448 21.0102C6.55004 20.9981 5.77458 21.0375 5.34815 20.9817C4.65365 20.8883 4.02025 20.4839 3.58759 19.8576C3.15421 19.2306 2.95874 18.4321 3.04471 17.6399C3.11858 16.9568 3.39363 16.3227 3.82485 15.8413C3.97983 15.6712 4.21045 15.4727 4.38175 15.3182L5.16705 14.6106L4.4026 11.2288C4.21175 10.3866 4.03189 9.53621 3.80758 8.7051C3.73559 8.43836 3.66472 8.17092 3.59333 7.90398L2.90175 5.31883L2.45066 3.63204C2.34803 3.24606 2.2322 2.61253 2.00071 2.31593C1.5647 1.75729 0.824603 2.24256 0.339595 1.79762C0.145446 1.61949 0.0425839 1.43146 0.00844254 1.14671C-0.0244247 0.877023 0.0395011 0.603614 0.185753 0.388343C0.354103 0.135537 0.539018 0.0527052 0.806929 0.0122501ZM17.5897 14.2954C17.6889 14.0363 17.8139 13.4105 17.8834 13.1014L18.3481 11.0501L18.9408 8.4378L19.1149 7.67001C19.1847 7.36816 19.3081 6.9958 19.1919 6.69774C19.0103 6.23123 18.5718 6.01635 18.1478 6.01289C17.5676 6.00816 16.9948 6.01033 16.418 6.01033L13.0107 6.01016L8.60992 6.00989C7.88005 6.00986 7.0767 5.99129 6.35225 6.012C5.97331 6.04154 5.72161 6.12384 5.44782 6.45657C5.33445 6.59437 5.24023 6.8903 5.26974 7.0679C5.32187 7.38154 5.41059 7.74106 5.48081 8.05238L5.94239 10.0975L6.56759 12.8654L6.74794 13.6706C6.78417 13.8343 6.82787 14.0539 6.87859 14.2076C6.95046 14.4263 7.07597 14.6167 7.24013 14.7562C7.58804 15.058 8.01186 15.0023 8.42508 15.0022L9.47531 15.0016L12.8274 15.0011H15.4423C15.8767 15.0013 16.3496 15.0208 16.7808 14.9794C17.116 14.9472 17.4305 14.6475 17.5829 14.3099L17.5897 14.2954Z" fill="#969696"/>
</svg>
