<svg width="26" height="21" viewBox="0 0 26 21" fill="none" xmlns="http://www.w3.org/2000/svg">
<path d="M11.6816 0.646616C11.8113 0.0261463 12.7801 -0.244887 13.2822 0.27357C13.407 0.404639 13.4939 0.567106 13.5352 0.743296C13.6077 1.04253 13.5799 2.36035 13.5713 2.72669C13.5707 2.74818 13.5704 2.76969 13.5693 2.79115C16.6733 2.95042 19.869 4.62446 21.9365 6.9181C23.6913 8.84829 24.8018 11.2773 25.1133 13.8673C25.1689 14.3401 25.2154 14.8654 25.2021 15.34C25.1683 16.5577 23.8599 16.3346 23.0439 16.3341L20.7842 16.3331H5.10742L2.31641 16.3341C1.86111 16.3342 1.39597 16.3385 0.941406 16.3331C0.681836 16.3301 0.419345 16.1953 0.24707 16.004C0.0911305 15.8309 0.0975341 15.7557 0 15.6056V14.3683C0.0909331 14.1172 0.107161 13.5905 0.160156 13.3038C0.260046 12.7635 0.36751 12.2595 0.526367 11.7326C1.54284 8.40053 3.88253 5.63187 6.99805 4.07337C8.54558 3.29661 9.92048 2.96913 11.6201 2.78334C11.6186 2.17424 11.5609 1.22487 11.6816 0.646616ZM13.251 4.71693C12.9919 4.70049 12.2468 4.6825 12.002 4.714C9.05429 4.93465 6.46197 6.16014 4.52148 8.41615C3.36198 9.75836 2.55797 11.3701 2.18262 13.1036C2.08646 13.5492 2.04249 13.9378 1.98047 14.3878C3.21139 14.4264 4.59282 14.3938 5.83691 14.3937H19.7256C20.8388 14.3936 22.1107 14.4228 23.2139 14.3849C23.1336 13.7749 23.0721 13.3117 22.9199 12.7169C22.3223 10.3969 20.9616 8.34552 19.0566 6.89271C17.381 5.60669 15.3591 4.84881 13.251 4.71693Z" fill="#969696"/>
<path d="M0 19.2743C0.130458 19.0226 0.363052 18.6415 0.651128 18.5996C1.34827 18.4982 2.40124 18.5429 3.10311 18.5437L7.09637 18.5449L18.3424 18.5449C20.2354 18.5448 22.1306 18.5422 24.0238 18.5452C24.2492 18.5456 24.4879 18.5585 24.6875 18.6682C24.9251 18.7983 25.0998 19.0192 25.1718 19.2805C25.2653 19.6229 25.154 19.9693 24.9063 20.2204C24.628 20.5026 24.2685 20.499 23.8989 20.4997C23.3886 20.5008 22.8758 20.4995 22.3642 20.4989L18.0047 20.4973H6.70209C4.85594 20.4972 3.00975 20.4983 1.16363 20.4993C0.513955 20.4996 0.296447 20.3421 0 19.7751V19.2743Z" fill="#969696"/>
</svg>
