<svg width="62" height="62" viewBox="0 0 62 62" fill="none" xmlns="http://www.w3.org/2000/svg">
<g clip-path="url(#clip0_2654_10314)">
<path d="M56.8253 27.922L55.9791 30.0601C55.7409 30.6637 55.7409 31.3359 55.9791 31.9395L56.8253 34.0776C62.4709 48.3487 48.3489 62.4707 34.0778 56.8251L31.9397 55.9789C31.3361 55.7407 30.6639 55.7407 30.0603 55.9789L27.9222 56.8251C13.6511 62.4707 -0.470899 48.3487 5.17469 34.0776L6.02087 31.9395C6.25909 31.3359 6.25909 30.6637 6.02087 30.0601L5.17469 27.922C-0.470895 13.6509 13.6511 -0.471094 27.9222 5.17449L30.0603 6.02068C30.6639 6.25889 31.3361 6.25889 31.9397 6.02068L34.0778 5.17449C48.3489 -0.471091 62.4709 13.6509 56.8253 27.922Z" fill="#EBA27C"/>
<path d="M21.7712 14.5429C21.7955 14.5417 21.8198 14.5407 21.8441 14.5399C22.2743 14.525 22.7513 14.535 23.1838 14.5352L25.5023 14.5358L32.6578 14.5355L38.0342 14.5353L39.7607 14.5353C40.0788 14.5353 40.3954 14.5327 40.7151 14.5413C40.9336 14.5369 41.2164 14.699 41.2599 14.9296C41.3133 15.2131 41.2937 15.5728 41.2935 15.8638L41.2928 17.7909C41.2933 18.0311 41.2827 18.3754 41.2914 18.602C41.3001 18.8251 41.7289 19.3556 41.8704 19.5619L43.3514 21.7015C44.1903 22.9125 44.6651 23.3585 44.6672 24.924L44.6669 39.118L44.6676 43.2249L44.6685 44.4087C44.6686 44.6881 44.6766 45.0069 44.6377 45.2923C44.5305 46.0803 43.8971 47.0563 43.1114 47.303C42.7995 47.4009 42.1121 47.3659 41.7589 47.3657L40.2155 47.3649L26.4706 47.3649L22.2043 47.365L20.9049 47.3656C19.9887 47.3656 19.1282 47.3721 18.3355 46.8278C17.3354 46.1413 17.3061 45.3463 17.306 44.2523L17.3065 42.9494L17.307 38.3106L17.3067 29.2179L17.3061 26.2287C17.3059 25.3923 17.2324 24.331 17.5031 23.5489C17.605 23.2596 17.7408 22.9834 17.9076 22.726C18.105 22.4266 18.6151 21.8456 18.8631 21.5503L20.5841 19.4994C20.7488 19.3034 21.1038 18.9095 21.237 18.7103L21.2508 18.6895C21.287 17.4837 21.2232 16.2493 21.2717 15.0429C21.2836 14.7481 21.4953 14.5936 21.7712 14.5429ZM36.7741 46.2234L36.7796 30.5672L36.7794 26.4281L36.7787 25.2258C36.7787 24.8998 36.7716 24.5131 36.8197 24.1938C36.3932 24.2183 35.8183 24.2002 35.3832 24.1997L32.7367 24.1987L24.4808 24.1988L20.1515 24.1989L19.0865 24.2024C18.9472 24.2036 18.6449 24.2198 18.5191 24.1978C18.4603 24.3331 18.4438 24.6347 18.4434 24.7819C18.4392 26.0416 18.4411 27.3036 18.4411 28.5632L18.4414 35.9569L18.4415 41.9519L18.4412 43.8771C18.4409 44.2476 18.4319 44.6253 18.4491 44.9913C18.4905 45.875 19.4102 46.197 20.1625 46.2174C20.4808 46.226 20.7894 46.2262 21.1054 46.2257L22.5915 46.2248L27.3112 46.2248L33.597 46.225L35.6752 46.225C36.0271 46.225 36.4259 46.2338 36.7741 46.2234ZM22.091 19.4856C21.7773 19.8098 21.3196 20.3898 21.0207 20.7464L19.0955 23.0462L36.3251 23.0463L37.2004 23.045C37.372 22.6897 37.5999 22.423 37.8215 22.1022L39.0061 20.3906C39.1803 20.1398 39.4868 19.7246 39.6337 19.4766L28.4753 19.4762L24.5445 19.4762C23.8488 19.4762 23.1266 19.4656 22.4333 19.4791L22.091 19.4856ZM40.6993 43.5993C40.2012 44.166 39.7195 44.7998 39.2312 45.379C39.1363 45.4914 38.6321 46.0955 38.5815 46.1884L38.5851 46.2062C38.7435 46.2375 39.1343 46.2269 39.3136 46.2267L40.6399 46.2248C41.3292 46.2251 42.0875 46.2396 42.7715 46.2235C42.5531 45.9512 40.8024 43.6316 40.6993 43.5993ZM43.5079 45.2449C43.56 44.8444 43.5445 44.4164 43.5441 44.0101L43.5436 42.3581L43.5432 36.6497L43.5431 28.0786L43.5439 25.908C43.5441 25.395 43.5752 24.5844 43.464 24.1171C43.4156 23.9145 43.3401 23.7192 43.2396 23.5366C43.1816 23.4336 43.1132 23.3361 43.0447 23.2397C42.482 22.4462 41.9367 21.6407 41.3795 20.8433C41.3582 20.813 41.3306 20.7852 41.3032 20.7606C41.2801 20.8609 41.2884 21.2066 41.2889 21.3297L41.2928 22.407L41.2919 26.8824L41.2921 37.3665L41.2923 40.751C41.2923 41.2464 41.2677 41.9954 41.2962 42.4746C41.4574 42.7025 43.3659 45.1733 43.4826 45.2456L43.5079 45.2449ZM40.1587 15.6818C37.5332 15.6501 34.8635 15.6749 32.235 15.6749L22.8513 15.6765C22.7028 15.6801 22.5382 15.6878 22.3912 15.6797L22.391 17.3007C22.3911 17.6251 22.4021 18.0051 22.3887 18.3235C23.131 18.3357 23.8735 18.3392 24.6159 18.334L28.1472 18.3342L39.6905 18.3339C39.8348 18.3343 40.0111 18.3302 40.1526 18.3397C40.1593 17.4798 40.1306 16.5276 40.1587 15.6818ZM40.1327 20.773C39.4774 21.6426 38.8822 22.5987 38.2439 23.485C37.8268 24.0646 37.9071 25.095 37.9078 25.7847L37.908 27.8853L37.9081 36.2508L37.9081 42.2953L37.9083 44.1664C37.9085 44.4203 37.8949 44.9068 37.9187 45.1436L37.9394 45.1738L39.3435 43.4622C39.5342 43.2307 39.9488 42.7375 40.1098 42.5144C40.1918 42.4005 40.1554 41.0351 40.1554 40.8479L40.1564 37.7808L40.1566 24.6753L40.1563 21.7115C40.1563 21.5875 40.1785 20.8187 40.1327 20.773Z" fill="#FFFDF8"/>
<path d="M20.2827 31.3945C20.67 31.4037 20.8575 31.7213 21.0811 31.9956L21.6694 32.7199C21.755 32.8253 22.0167 33.194 22.1365 33.1965C22.399 32.8971 22.6423 32.5346 22.9128 32.2352C23.1313 31.9933 23.327 31.6799 23.582 31.4759C23.7402 31.3493 24.0944 31.3846 24.2345 31.5305C24.3609 31.6538 24.4152 31.7157 24.4254 31.8941C24.4431 32.2039 24.4362 32.5121 24.4362 32.8211L24.4365 34.4561L24.4363 35.9111C24.4363 36.2176 24.4942 36.8431 24.2945 37.071C24.1928 37.186 24.0481 37.2535 23.8947 37.2579C23.743 37.2632 23.5761 37.2042 23.4676 37.0967C23.3957 37.0254 23.3466 36.9343 23.3267 36.8351C23.2916 36.6516 23.3041 36.2623 23.3045 36.0615L23.3063 34.8508C23.3035 34.4144 23.305 33.978 23.3108 33.5415C22.0746 35.0492 22.1365 35.1583 20.8897 33.5456C20.8587 34.6038 20.9121 35.6751 20.876 36.7333C20.8618 37.1524 20.3754 37.4035 20.0166 37.172C19.6648 36.9451 19.7517 36.4811 19.7516 36.1099L19.7511 34.8593L19.751 32.991C19.7511 32.7519 19.7537 32.5054 19.7514 32.2671C19.7473 31.8319 19.7605 31.4748 20.2827 31.3945Z" fill="#FFFDF8"/>
<path d="M32.911 33.4911C33.3782 32.924 33.8857 32.3878 34.3683 31.8339C34.5303 31.6479 34.6852 31.4338 34.943 31.4023C35.2804 31.3612 35.5554 31.5805 35.5846 31.9176C35.5931 32.0163 35.5729 32.1155 35.5264 32.203C35.4318 32.3793 35.1614 32.6493 35.0219 32.8104C34.6802 33.2048 34.2907 33.5998 33.9612 34.0034C34.2795 34.4743 34.5929 34.9905 34.9082 35.4665C35.0481 35.6782 35.4969 36.3493 35.5581 36.5265C35.6921 37.0968 35.0905 37.4927 34.6551 37.1152C34.5057 36.9856 34.3278 36.6697 34.2137 36.4915L33.5731 35.4915C33.4565 35.3097 33.3041 35.0582 33.1762 34.8946L33.1605 34.8748C33.1074 34.9555 32.9239 35.141 32.9166 35.2121C32.8857 35.6206 32.9011 36.0763 32.9069 36.4844C32.9115 36.8086 32.8042 37.2289 32.4114 37.2572C31.6393 37.3125 31.769 36.4897 31.7713 36.0283L31.7707 34.7217L31.7691 32.8833C31.7691 32.5583 31.7585 32.2203 31.7831 31.8962C31.807 31.5828 32.0234 31.4304 32.3202 31.395C32.9522 31.4325 32.9108 31.985 32.9062 32.452C32.9028 32.7926 32.8956 33.153 32.911 33.4911Z" fill="#FFFDF8"/>
<path d="M28.1853 31.396C28.8928 31.439 28.7781 32.0811 28.777 32.5946L28.777 33.6201L28.7774 35.1971C28.7774 35.4861 28.7859 35.8341 28.7694 36.1183C29.1484 36.1383 29.5297 36.1207 29.9099 36.1262C30.2137 36.1363 30.4832 36.0827 30.7603 36.2394C31.1525 36.4613 31.0525 37.0265 30.6834 37.2064C30.6141 37.2401 30.5462 37.249 30.4684 37.261C29.8873 37.2969 29.249 37.2454 28.6749 37.2705C27.5227 37.3208 27.64 36.9116 27.6401 35.9765L27.6406 34.6091L27.6402 32.9292C27.6399 32.6765 27.6427 32.4183 27.6405 32.1661C27.6369 31.759 27.722 31.4531 28.1853 31.396Z" fill="#FFFDF8"/>
<path d="M26.1179 31.395C26.8192 31.4426 26.6915 32.139 26.6912 32.6467L26.6908 33.9089L26.6914 35.7148C26.6913 36.0296 26.6956 36.3435 26.6846 36.6581C26.6717 37.0278 26.5069 37.199 26.1448 37.2659C25.4104 37.1801 25.5594 36.5537 25.5591 35.9902L25.5587 34.5194L25.5589 32.8202C25.5591 32.5047 25.5517 32.1743 25.5749 31.8598C25.5813 31.7731 25.632 31.6697 25.6871 31.6019C25.8084 31.4528 25.9378 31.4134 26.1179 31.395Z" fill="#FFFDF8"/>
</g>
<defs>
<clipPath id="clip0_2654_10314">
<rect width="62" height="62" fill="white" transform="translate(62 2.71011e-06) rotate(90)"/>
</clipPath>
</defs>
</svg>
