<svg width="152" height="152" viewBox="0 0 152 152" fill="none" xmlns="http://www.w3.org/2000/svg">
<path d="M51.9609 15.6667C76.5109 -13.6297 124.191 0.535549 128.764 38.4837L129.449 44.1699C129.643 45.7742 130.441 47.2469 131.679 48.2859L136.069 51.9629C165.366 76.513 151.201 124.194 113.252 128.766L107.566 129.451C105.962 129.645 104.49 130.443 103.451 131.681L99.7729 136.071C75.2229 165.368 27.542 151.203 22.9694 113.254L22.286 107.568C22.0913 105.964 21.2928 104.492 20.055 103.453L15.6648 99.7749C-13.6315 75.2248 0.533482 27.5442 38.4817 22.9714L44.1677 22.2879C45.772 22.0933 47.2449 21.2951 48.2839 20.0573L51.9609 15.6667Z" fill="white" fill-opacity="0.5"/>
</svg>
