<svg width="38" height="37" viewBox="0 0 38 37" fill="none" xmlns="http://www.w3.org/2000/svg">
<path d="M12.339 0.0252388C13.8904 -0.0891287 15.5235 0.193071 16.9811 0.711938C17.5647 0.919695 18.256 1.315 18.8535 1.32633C19.5541 1.33963 20.2928 0.865739 21.0076 0.640867C21.8817 0.365835 22.7534 0.147181 23.6707 0.0511245C24.1308 0.00922771 24.6107 0.0526937 25.0688 0.0344187C30.7127 -0.190752 35.9534 4.0028 37.3823 9.26489C37.5214 9.77736 37.7392 10.5092 37.7923 11.0411C37.8211 11.9886 37.9011 13.067 37.79 14.0111C37.6111 15.3155 37.1147 16.5211 36.6284 17.7384C36.1982 18.77 36.7745 19.7077 37.1338 20.673C37.7903 22.4374 37.973 24.1005 37.7977 25.9966C37.5937 28.2044 36.324 30.8239 34.8519 32.491C32.9059 34.6953 30.3525 36.2712 27.4185 36.7954C26.6391 36.9356 26.2647 36.9385 25.5136 36.9962C23.9497 36.991 22.9484 36.895 21.4129 36.4553C20.5595 36.2105 19.741 35.6831 18.8819 35.6719C18.1816 35.6808 17.5558 36.0828 16.9026 36.3039C7.43005 39.5127 -2.0227 31.1173 0.385732 21.5815C0.489622 21.1718 0.614952 20.7677 0.761186 20.3706C0.929932 19.9184 1.3985 18.972 1.369 18.5364C1.26451 17.5183 0.70593 16.5731 0.42403 15.5762C-0.58727 12 0.245619 7.87491 2.54627 4.93155C2.91885 4.45489 3.642 3.65162 4.0997 3.22462C6.31279 1.16001 9.30782 0.0927263 12.339 0.0252388Z" fill="#EAEC98"/>
<path d="M15.9178 28.3954C15.9178 28.9476 16.3696 29.3993 16.9217 29.3993H20.9372C21.4894 29.3993 21.9411 28.9476 21.9411 28.3954V27.3915H15.9178V28.3954ZM18.9295 9.32178C15.0545 9.32178 11.9023 12.4739 11.9023 16.3489C11.9023 18.7381 13.097 20.8362 14.914 22.1112V24.3799C14.914 24.932 15.3657 25.3838 15.9178 25.3838H21.9411C22.4932 25.3838 22.945 24.932 22.945 24.3799V22.1112C24.762 20.8362 25.9566 18.7381 25.9566 16.3489C25.9566 12.4739 22.8044 9.32178 18.9295 9.32178ZM21.7905 20.4648L20.9372 21.0671V23.376H16.9217V21.0671L16.0684 20.4648C14.7132 19.5212 13.9101 17.9852 13.9101 16.3489C13.9101 13.5782 16.1588 11.3295 18.9295 11.3295C21.7002 11.3295 23.9489 13.5782 23.9489 16.3489C23.9489 17.9852 23.1458 19.5212 21.7905 20.4648Z" fill="#5D7853"/>
</svg>
