<svg width="38" height="37" viewBox="0 0 38 37" fill="none" xmlns="http://www.w3.org/2000/svg">
<path d="M12.339 0.0252388C13.8904 -0.0891287 15.5235 0.193071 16.9811 0.711938C17.5647 0.919695 18.256 1.315 18.8535 1.32633C19.5541 1.33963 20.2928 0.865739 21.0076 0.640867C21.8817 0.365835 22.7534 0.147181 23.6707 0.0511245C24.1308 0.00922771 24.6107 0.0526937 25.0688 0.0344187C30.7127 -0.190752 35.9534 4.0028 37.3823 9.26489C37.5214 9.77736 37.7392 10.5092 37.7923 11.0411C37.8211 11.9886 37.9011 13.067 37.79 14.0111C37.6111 15.3155 37.1147 16.5211 36.6284 17.7384C36.1982 18.77 36.7745 19.7077 37.1338 20.673C37.7903 22.4374 37.973 24.1005 37.7977 25.9966C37.5937 28.2044 36.324 30.8239 34.8519 32.491C32.9059 34.6953 30.3525 36.2712 27.4185 36.7954C26.6391 36.9356 26.2647 36.9385 25.5136 36.9962C23.9497 36.991 22.9484 36.895 21.4129 36.4553C20.5595 36.2105 19.741 35.6831 18.8819 35.6719C18.1816 35.6808 17.5558 36.0828 16.9026 36.3039C7.43005 39.5127 -2.0227 31.1173 0.385732 21.5815C0.489622 21.1718 0.614952 20.7677 0.761186 20.3706C0.929932 19.9184 1.3985 18.972 1.369 18.5364C1.26451 17.5183 0.70593 16.5731 0.42403 15.5762C-0.58727 12 0.245619 7.87491 2.54627 4.93155C2.91885 4.45489 3.642 3.65162 4.0997 3.22462C6.31279 1.16001 9.30782 0.0927263 12.339 0.0252388Z" fill="#EAEC98"/>
<path d="M17.9255 14.3412H19.9333V16.3489H17.9255V14.3412ZM17.9255 18.3567H19.9333V24.3799H17.9255V18.3567ZM18.9294 9.32178C13.388 9.32178 8.89062 13.8191 8.89062 19.3605C8.89062 24.9019 13.388 29.3993 18.9294 29.3993C24.4708 29.3993 28.9681 24.9019 28.9681 19.3605C28.9681 13.8191 24.4708 9.32178 18.9294 9.32178ZM18.9294 27.3915C14.5023 27.3915 10.8984 23.7876 10.8984 19.3605C10.8984 14.9334 14.5023 11.3295 18.9294 11.3295C23.3565 11.3295 26.9604 14.9334 26.9604 19.3605C26.9604 23.7876 23.3565 27.3915 18.9294 27.3915Z" fill="#5D7853"/>
</svg>
