<svg width="143" height="143" viewBox="0 0 143 143" fill="none" xmlns="http://www.w3.org/2000/svg">
<g clip-path="url(#clip0_1189_12419)">
<path d="M71.5 143C110.988 143 143 110.988 143 71.5C143 32.0116 110.988 0 71.5 0C32.0116 0 0 32.0116 0 71.5C0 110.988 32.0116 143 71.5 143Z" fill="#F8A176"/>
<path d="M69.9893 31.0997C76.8707 30.4816 85.7293 32.7771 91.683 36.1247C102.132 42 108.451 51.0567 111.823 62.3814C114.48 62.6133 116.569 62.9311 118.653 64.7639C122.467 68.115 123.164 74.3587 119.584 78.1421C117.312 80.5434 114.972 81.1756 111.807 81.3341C110.171 87.8341 107.017 93.8535 102.604 98.8985C96.4406 105.852 88.1025 110.51 78.9504 112.115C77.3669 112.388 75.4474 112.512 73.8368 112.613C72.2006 112.803 70.7807 112.625 69.1691 112.531C63.4579 112.2 58.112 110.635 53.009 108.012C45.0336 103.836 38.665 97.1367 34.8975 88.9603C33.7628 86.4629 33.0355 84.0303 32.2023 81.4245C29.3455 81.1346 27.1205 80.6689 24.9173 78.6263C21.2263 75.2347 20.9644 68.98 24.5512 65.4009C26.884 63.0733 28.988 62.5558 32.138 62.4784C33.4888 58.1161 34.4293 54.9746 36.814 50.9938C44.1252 38.7899 56.1025 32.0475 69.9893 31.0997Z" fill="#FFFCD9"/>
<path d="M69.6578 33.8213C76.1862 33.9103 81.31 34.4285 87.3798 37.0949C96.2843 41.0068 103.47 48.2565 107.093 57.2889C108.101 59.8035 108.808 62.2089 109.624 64.7956C109.642 64.8512 109.829 65.2228 109.835 65.224C110.817 65.4101 112.455 65.2745 113.394 65.3833C114.084 65.4685 114.755 65.6615 115.384 65.9551C116.928 66.6655 118.169 67.8597 118.743 69.4791C119.346 71.2244 119.245 73.1357 118.462 74.8082C117.402 77.0236 115.197 78.3187 112.756 78.3633C111.947 78.378 110.656 78.2318 109.977 78.4759C109.363 79.0989 108.806 81.4435 108.545 82.3547C105.774 92.0234 99.2953 100.206 90.5197 105.12C81.4909 110.109 70.832 111.247 60.9535 108.277C51.4876 105.492 43.4964 99.0974 38.7048 90.4721C37.8502 88.7699 37.0932 87.2786 36.3712 85.4337C35.6593 83.6146 34.911 80.1364 34.0115 78.608C33.6189 77.941 29.1278 79.3012 26.8099 76.7711C25.4718 75.3105 24.9842 74.4294 24.7841 72.0102C24.6767 70.3836 25.3909 68.5512 26.4664 67.4646C28.7118 65.1962 30.9471 65.3465 33.833 65.3534C34.3204 65.3546 34.9707 63.1177 35.0982 62.5044C37.8633 49.2006 51.4901 36.086 65.1268 34.6227C63.7178 36.4419 62.7075 37.7808 62.5164 40.1682C62.1342 45.5272 66.3308 48.5465 71.2582 48.9366C75.4579 49.2692 81.2113 47.1339 81.4618 42.2566C81.5588 40.5244 80.9616 38.8249 79.8026 37.5337C78.7838 36.4128 77.3532 35.7537 75.8391 35.7079C74.3192 35.6535 72.8352 36.1265 71.7374 37.1992C70.721 38.1923 69.3952 40.3436 70.6799 41.6137C72.2091 42.0478 73.0854 39.647 74.7169 38.7508C74.9405 38.736 75.1645 38.7278 75.3886 38.726C78.8625 38.7132 79.6552 42.2078 77.4297 44.424C75.9811 45.8664 73.355 46.2126 71.3802 46.1771C68.3693 46.1231 65.0926 43.8963 65.3218 40.5766C65.5269 37.8482 67.6923 35.5662 69.6578 33.8213Z" fill="#EBA27C"/>
<path d="M55.6014 71.1454C60.9024 70.3258 66.5901 73.139 67.0356 78.9933C64.7507 81.4682 64.4139 77.9827 63.5468 76.6546C62.5309 75.0985 60.7626 74.3593 58.9825 73.9765C56.0083 73.5426 52.1262 74.2363 50.5588 77.237C50.1141 78.0885 50.1339 79.6238 48.9402 79.8497C48.3081 79.9695 47.4657 79.2591 47.4219 78.608C47.5103 74.1493 51.5537 71.6244 55.6014 71.1454Z" fill="#FFFCD9"/>
<path d="M85.0794 71.1429C88.6662 70.7735 92.3101 71.5251 94.7647 74.4044C95.6747 75.3727 97.2907 78.5966 95.8628 79.6871C94.8109 80.4904 94.092 79.389 93.824 78.5477C92.9644 75.8479 91.4452 74.6268 88.6096 73.9813C85.8914 73.4647 81.751 74.1921 80.2695 76.844C79.7955 77.6924 79.4083 79.6164 78.3648 79.8822C75.7429 79.7881 77.362 75.7789 78.276 74.6379C79.9363 72.5653 82.48 71.4646 85.0794 71.1429Z" fill="#FFFCD9"/>
</g>
<defs>
<clipPath id="clip0_1189_12419">
<rect width="143" height="143" fill="white"/>
</clipPath>
</defs>
</svg>
