<svg width="26" height="26" viewBox="0 0 26 26" fill="none" xmlns="http://www.w3.org/2000/svg">
<path d="M19.7453 4.4294L20.1284 5.31432C20.2367 5.56394 20.4361 5.76328 20.6857 5.87162L21.5706 6.25472C27.4765 8.81242 27.4765 17.1876 21.5706 19.7453L20.6857 20.1284C20.4361 20.2367 20.2367 20.4361 20.1284 20.6857L19.7453 21.5706C17.1876 27.4765 8.81242 27.4765 6.25472 21.5706L5.87162 20.6857C5.76328 20.4361 5.56394 20.2367 5.31432 20.1284L4.4294 19.7453C-1.47646 17.1876 -1.47646 8.81242 4.4294 6.25472L5.31432 5.87162C5.56394 5.76328 5.76328 5.56394 5.87162 5.31432L6.25472 4.4294C8.81242 -1.47646 17.1876 -1.47646 19.7453 4.4294Z" fill="#EAEC98"/>
<path d="M10.3088 17.0347C10.1818 17.0347 10.0754 16.9917 9.98966 16.9056C9.90388 16.8195 9.86084 16.7131 9.86054 16.5864C9.86024 16.4597 9.90328 16.3533 9.98966 16.2672C10.076 16.1811 10.1824 16.1381 10.3088 16.1381H15.6885C15.8155 16.1381 15.9221 16.1811 16.0082 16.2672C16.0942 16.3533 16.1371 16.4597 16.1368 16.5864C16.1365 16.7131 16.0935 16.8197 16.0077 16.906C15.9219 16.9924 15.8155 17.0353 15.6885 17.0347H10.3088ZM10.6227 15.4656C10.406 15.4656 10.2137 15.3947 10.0457 15.2527C9.87773 15.1107 9.77492 14.9314 9.73726 14.7147L9.28895 11.868C9.27401 11.868 9.25727 11.8699 9.23874 11.8738C9.22021 11.8777 9.20333 11.8795 9.18808 11.8792C9.00129 11.8792 8.84259 11.8139 8.71198 11.6833C8.58138 11.5527 8.51592 11.3938 8.51563 11.2067C8.51533 11.0196 8.58078 10.8609 8.71198 10.7306C8.84319 10.6003 9.00189 10.5349 9.18808 10.5343C9.37428 10.5337 9.53313 10.5991 9.66463 10.7306C9.79614 10.8621 9.86144 11.0208 9.86054 11.2067C9.86054 11.259 9.85486 11.3076 9.84351 11.3524C9.83215 11.3973 9.81915 11.4384 9.8045 11.4757L11.2055 12.1034L12.6064 10.1868C12.5242 10.1271 12.457 10.0486 12.4047 9.95148C12.3524 9.85435 12.3262 9.74975 12.3262 9.63767C12.3262 9.45088 12.3917 9.29203 12.5226 9.16112C12.6535 9.03022 12.8122 8.96491 12.9987 8.96521C13.1852 8.96551 13.344 9.03096 13.4752 9.16157C13.6064 9.29218 13.6717 9.45088 13.6711 9.63767C13.6711 9.74975 13.645 9.85435 13.5927 9.95148C13.5404 10.0486 13.4731 10.1271 13.391 10.1868L14.7919 12.1034L16.1929 11.4757C16.1779 11.4384 16.1648 11.3973 16.1534 11.3524C16.1421 11.3076 16.1365 11.259 16.1368 11.2067C16.1368 11.0199 16.2023 10.8611 16.3332 10.7302C16.4641 10.5993 16.6228 10.534 16.8093 10.5343C16.9958 10.5346 17.1546 10.6 17.2858 10.7306C17.417 10.8612 17.4823 11.0199 17.4817 11.2067C17.4811 11.3935 17.4158 11.5524 17.2858 11.6833C17.1558 11.8142 16.997 11.8795 16.8093 11.8792C16.7943 11.8792 16.7776 11.8774 16.7591 11.8738C16.7405 11.8702 16.7237 11.8683 16.7084 11.868L16.2601 14.7147C16.2227 14.9314 16.1201 15.1107 15.9521 15.2527C15.7842 15.3947 15.5917 15.4656 15.3747 15.4656H10.6227Z" fill="#5D7853"/>
</svg>
