<svg width="74" height="66" viewBox="0 0 74 66" fill="none" xmlns="http://www.w3.org/2000/svg">
<path d="M18.376 7.01367C25.8904 -10.3374 50.4963 -10.3374 58.0107 7.01367L59.1357 9.61328C59.454 10.3466 60.0401 10.9327 60.7734 11.251L63.373 12.376C80.7241 19.8904 80.7241 44.4963 63.373 52.0107L60.7734 53.1357C60.0401 53.454 59.454 54.0401 59.1357 54.7734L58.0107 57.373C50.4963 74.7241 25.8904 74.7241 18.376 57.373L17.251 54.7734C16.9327 54.0401 16.3466 53.454 15.6133 53.1357L13.0137 52.0107C-4.33743 44.4963 -4.33743 19.8904 13.0137 12.376L15.6133 11.251C16.3466 10.9327 16.9327 10.3466 17.251 9.61328L18.376 7.01367Z" fill="#EAEC8C"/>
<path d="M43.4 24.7988L50.2929 31.6917C50.6834 32.0822 50.6834 32.7154 50.2929 33.1059L43.4 39.9988" stroke="#2C2C2C" stroke-width="1.5" stroke-linecap="round"/>
<path d="M50 32H29" stroke="#2C2C2C" stroke-width="1.5" stroke-linecap="round"/>
</svg>
